<svg data-v-423bf9ae="" xmlns="http://www.w3.org/2000/svg" viewBox="0 0 427 96" class="iconLeftSlogan"><!----><!----><!----><g data-v-423bf9ae="" id="450374a6-4f9f-40c5-bf11-d245364c8082" fill="#000000" transform="matrix(4.566209926355878,0,0,4.566209926355878,114.23905129489381,-11.004565599182875)"><path d="M4.18 2.42L4.18 2.42Q5.61 2.42 6.39 2.76L6.39 2.76L6.39 2.76Q7.18 3.10 7.86 3.79L7.86 3.79L6.49 5.15L6.49 5.15Q5.81 4.33 4.58 4.33L4.58 4.33L4.58 4.33Q3.35 4.33 3.01 4.92L3.01 4.92L3.01 4.92Q2.67 5.50 3.01 5.91L3.01 5.91L3.01 5.91Q3.35 6.32 4.58 6.52L4.58 6.52L4.58 6.52Q5.88 6.66 6.94 7.38L6.94 7.38L6.94 7.38Q8.00 8.09 8.00 9.67L8.00 9.67L8.00 9.67Q8.00 10.90 6.87 11.79L6.87 11.79L6.87 11.79Q5.74 12.67 4.23 12.67L4.23 12.67L4.23 12.67Q2.80 12.67 1.85 12.26L1.85 12.26L1.85 12.26Q0.89 11.85 0.21 11.17L0.21 11.17L1.57 9.80L1.57 9.80Q2.26 10.62 3.90 10.76L3.90 10.76L3.90 10.76Q5.26 10.76 5.60 10.18L5.60 10.18L5.60 10.18Q5.94 9.60 5.60 9.02L5.60 9.02L5.60 9.02Q5.26 8.44 3.90 8.30L3.90 8.30L3.90 8.30Q2.67 8.16 1.64 7.55L1.64 7.55L1.64 7.55Q0.62 6.93 0.62 5.43L0.62 5.43L0.62 5.43Q0.62 4.07 1.78 3.24L1.78 3.24L1.78 3.24Q2.95 2.42 4.18 2.42L4.18 2.42ZM11.56 15.55L9.65 15.54L9.65 6.04L11.56 5.83L11.56 6.38L11.56 6.38Q12.33 5.83 13.06 5.83L13.06 5.83L13.06 5.83Q14.64 5.83 15.56 6.86L15.56 6.86L15.56 6.86Q16.48 7.88 16.48 9.25L16.48 9.25L16.48 9.25Q16.48 10.62 15.56 11.64L15.56 11.64L15.56 11.64Q14.64 12.67 13.06 12.67L13.06 12.67L13.06 12.67Q12.04 12.60 11.56 12.11L11.56 12.11L11.56 15.55ZM11.56 8.63L11.56 8.63L11.56 9.74L11.56 9.74Q11.70 10.89 13.00 11.09L13.00 11.09L13.00 11.09Q14.64 10.96 14.84 9.39L14.84 9.39L14.84 9.39Q14.77 7.47 13.00 7.40L13.00 7.40L13.00 7.40Q11.70 7.61 11.56 8.63ZM18.73 7.82L17.98 6.66L17.98 6.66Q19.28 5.84 20.99 5.84L20.99 5.84L20.99 5.84Q22.22 5.84 22.93 6.52L22.93 6.52L22.93 6.52Q23.65 7.21 23.65 8.57L23.65 8.57L23.65 12.67L21.74 12.67L21.74 12.13L21.74 12.13Q20.90 12.67 20.23 12.67L20.23 12.67L20.23 12.67Q18.87 12.67 18.18 12.09L18.18 12.09L18.18 12.09Q17.50 11.51 17.50 10.49L17.50 10.49L17.50 10.49Q17.50 9.53 18.15 8.78L18.15 8.78L18.15 8.78Q18.79 8.03 20.23 8.03L20.23 8.03L20.23 8.03Q20.90 8.03 21.74 8.44L21.74 8.44L21.74 8.23L21.74 8.23Q21.72 7.48 20.64 7.41L20.64 7.41L20.64 7.41Q19.41 7.41 18.73 7.82L18.73 7.82ZM21.74 10.62L21.74 10.62L21.74 9.85L21.74 9.85Q21.46 9.32 20.44 9.32L20.44 9.32L20.44 9.32Q19.21 9.46 19.14 10.28L19.14 10.28L19.14 10.28Q19.21 11.09 20.44 11.16L20.44 11.16L20.44 11.16Q21.46 11.16 21.74 10.62ZM29.58 12.35L29.58 12.35Q29.09 12.67 28.45 12.67L28.45 12.67L28.45 12.67Q27.29 12.67 26.61 12.02L26.61 12.02L26.61 12.02Q25.92 11.38 25.92 10.35L25.92 10.35L25.92 7.39L24.90 7.39L24.90 5.84L25.92 5.84L25.92 3.99L27.84 3.79L27.84 5.84L28.87 5.84L28.87 7.39L27.84 7.39L27.84 10.08L27.84 10.08Q27.84 10.62 28.07 10.85L28.07 10.85L28.07 10.85Q28.30 11.07 28.66 11.07L28.66 11.07L28.66 11.07Q28.77 11.07 29.18 10.98L29.18 10.98L29.58 12.35ZM32.66 12.67L30.74 12.67L30.74 5.83L32.66 5.83L32.66 12.67ZM30.67 4.20L30.67 4.20L30.67 4.20Q30.67 4.61 30.95 4.88L30.95 4.88L30.95 4.88Q31.22 5.15 31.70 5.15L31.70 5.15L31.70 5.15Q32.18 5.15 32.45 4.88L32.45 4.88L32.45 4.88Q32.72 4.61 32.72 4.20L32.72 4.20L32.72 4.20Q32.72 3.79 32.45 3.51L32.45 3.51L32.45 3.51Q32.18 3.23 31.68 3.23L31.68 3.23L31.68 3.23Q31.22 3.23 30.95 3.51L30.95 3.51L30.95 3.51Q30.67 3.79 30.67 4.20ZM35.21 7.82L34.45 6.66L34.45 6.66Q35.75 5.84 37.46 5.84L37.46 5.84L37.46 5.84Q38.69 5.84 39.41 6.52L39.41 6.52L39.41 6.52Q40.13 7.21 40.13 8.57L40.13 8.57L40.13 12.67L38.21 12.67L38.21 12.13L38.21 12.13Q37.38 12.67 36.71 12.67L36.71 12.67L36.71 12.67Q35.34 12.67 34.66 12.09L34.66 12.09L34.66 12.09Q33.97 11.51 33.97 10.49L33.97 10.49L33.97 10.49Q33.97 9.53 34.62 8.78L34.62 8.78L34.62 8.78Q35.27 8.03 36.71 8.03L36.71 8.03L36.71 8.03Q37.37 8.03 38.21 8.44L38.21 8.44L38.21 8.23L38.21 8.23Q38.20 7.48 37.12 7.41L37.12 7.41L37.12 7.41Q35.89 7.41 35.21 7.82L35.21 7.82ZM38.21 10.62L38.21 10.62L38.21 9.85L38.21 9.85Q37.94 9.32 36.91 9.32L36.91 9.32L36.91 9.32Q35.68 9.46 35.62 10.28L35.62 10.28L35.62 10.28Q35.68 11.09 36.91 11.16L36.91 11.16L36.91 11.16Q37.94 11.16 38.21 10.62ZM51.34 12.67L51.34 12.67Q49.17 12.67 47.70 11.20L47.70 11.20L47.70 11.20Q46.22 9.73 46.22 7.53L46.22 7.53L46.22 7.53Q46.23 5.37 47.70 3.89L47.70 3.89L47.70 3.89Q49.17 2.42 51.34 2.42L51.34 2.42L51.34 2.42Q53.54 2.42 55.11 3.79L55.11 3.79L53.74 5.28L53.74 5.28Q52.70 4.46 51.34 4.46L51.34 4.46L51.34 4.46Q49.96 4.47 49.12 5.33L49.12 5.33L49.12 5.33Q48.28 6.18 48.28 7.51L48.28 7.51L48.28 7.51Q48.28 8.94 49.13 9.78L49.13 9.78L49.13 9.78Q49.98 10.62 51.36 10.62L51.36 10.62L51.36 10.62Q52.47 10.62 53.06 10.19L53.06 10.19L53.06 8.43L51.69 8.44L51.69 6.52L55.11 6.52L55.11 11.31L55.11 11.31Q53.55 12.67 51.34 12.67L51.34 12.67ZM57.18 12.67L57.18 2.41L59.22 2.41L59.22 12.67L57.18 12.67ZM64.61 2.42L64.61 2.42Q66.04 2.42 66.83 2.76L66.83 2.76L66.83 2.76Q67.61 3.10 68.30 3.79L68.30 3.79L66.93 5.15L66.93 5.15Q66.25 4.33 65.02 4.33L65.02 4.33L65.02 4.33Q63.79 4.33 63.44 4.92L63.44 4.92L63.44 4.92Q63.10 5.50 63.44 5.91L63.44 5.91L63.44 5.91Q63.79 6.32 65.02 6.52L65.02 6.52L65.02 6.52Q66.32 6.66 67.38 7.38L67.38 7.38L67.38 7.38Q68.43 8.09 68.43 9.67L68.43 9.67L68.43 9.67Q68.43 10.90 67.30 11.79L67.30 11.79L67.30 11.79Q66.17 12.67 64.67 12.67L64.67 12.67L64.67 12.67Q63.24 12.67 62.28 12.26L62.28 12.26L62.28 12.26Q61.33 11.85 60.64 11.17L60.64 11.17L62.01 9.80L62.01 9.80Q62.69 10.62 64.33 10.76L64.33 10.76L64.33 10.76Q65.70 10.76 66.04 10.18L66.04 10.18L66.04 10.18Q66.38 9.60 66.04 9.02L66.04 9.02L66.04 9.02Q65.70 8.44 64.33 8.30L64.33 8.30L64.33 8.30Q63.10 8.16 62.08 7.55L62.08 7.55L62.08 7.55Q61.05 6.93 61.05 5.43L61.05 5.43L61.05 5.43Q61.05 4.07 62.22 3.24L62.22 3.24L62.22 3.24Q63.38 2.42 64.61 2.42L64.61 2.42Z"></path></g><defs data-v-423bf9ae=""><linearGradient data-v-423bf9ae="" gradientTransform="rotate(25)" id="badd4098-ef6a-4fd1-b14a-a6695d8634a3" x1="0%" y1="0%" x2="100%" y2="0%"><stop data-v-423bf9ae="" offset="0%" style="stop-color: rgb(23, 119, 117); stop-opacity: 1;"></stop><stop data-v-423bf9ae="" offset="100%" style="stop-color: rgb(40, 210, 191); stop-opacity: 1;"></stop></linearGradient></defs><g data-v-423bf9ae="" id="7f87e817-971c-4cad-bdf1-371ac321f445" transform="matrix(1.0284666273328993,0,0,1.0284666273328993,-3.719223039368323,-2.693227412157121)" stroke="none" fill="url(#badd4098-ef6a-4fd1-b14a-a6695d8634a3)"><path d="M50.506 3.329c-25.52 0-46.282 20.762-46.282 46.281 0 25.52 20.762 46.281 46.282 46.281 25.519 0 46.281-20.762 46.281-46.281 0-25.52-20.763-46.281-46.281-46.281zm20.533 32.905c-.256-.812-.17-2.009.215-2.223s1.195-1.453 1.195-1.453c.129-.279.941.086 1.112.213.171.128.256 1.625.085 2.564-.171.941.47 1.496.726 1.581.258.086.429 2.095.385 2.522-.042.427-1.238.812-1.57.854-.331.043-1.634.067-1.592-.555.044-.621-.3-2.691-.556-3.503zM50.677 90.763a41.201 41.201 0 0 1-27.464-10.458l1.888-2.747 1.389-5.513-3.344-2.179-3.85-1.281-2.567-6.154s-2.823-2.309-4.874-3.077c-.723-.271-1.186-1.347-1.938-2.959a41.242 41.242 0 0 1-.366-10.824c.161-.186.292-.338.379-.448 2.051-2.564 7.564-5 7.564-5s1.813-.256-1.274-5.384c-3.085-5.127 1.401-8.205 1.401-8.205l2.436-1.794s-1.026 5.383.257 6.154c1.28.769 2.562-1.667 2.82-2.436.256-.769 2.948-3.666 3.974-5.204 1.026-1.539.128-5.181-1.41-5.437a1.14 1.14 0 0 1-.729-.455c7.021-5.572 15.897-8.905 25.536-8.905 7.652 0 14.82 2.102 20.965 5.754-5.175-.205-10.472 2.739-11.478 2.515-1.154-.255-6.773.706-8.825 1.475-2.052.77-1.794 1.837-2.307 1.966-.514.127-.787.555-1.581 1.453-.795.897.342 1.923.342 1.923s3.077.77 3.59-1.496c.303-1.347-.13 1.154 0 2.179.128 1.026 2.05 1.282 3.075 0 .462-.577.39-2.04.684-2.521.362-.588 1.074-.14 1.497-.196.255-.034-.242.432.085.625.655.387 1.99-.28 1.666 1.281-.13.628-2.136.755-2.392 1.681-.258.926-.727 1.427-.727 1.427l-4.188.098-1.368-2.008s-1.386.598-1.026 1.794c.247.824-.359 1.794-.359 1.794s-2.205.385-2.205 1.026c0 .352-.87.401-1.367.598-.408.163-.708.841-1.111.898-.241.034-1.719.171-2.052.213-.902.114-.47.352-.47.727 0 .513 1.667.641 1.667.641s1.025.427.641 1.196c-.385.77.299 1.026-.47 1.026-.334 0-1.109-.047-1.879-.043-.996.007-1.962-.306-1.985.104-.095 1.583-.035 3.787-.035 3.787s1.335.641 2.061.469c1.006-.237 2.436.556 3.12-1.282.053-.141.146-.454.255-.598.476-.624.922-1.831 1.71-2.222.484-.241 1.182-.029 1.41-.043.512-.032 1.369-.726 1.369-.726s2.307.299 2.904 2.564c.177.667 0 1.795.386 2.008.234.13 1.282-1.025 1.282-1.025l1.197.042-.66-1.559-2.205-2.415.302-.17s1.75.043 1.88.427c.127.385 2.129 1.325 1.794 2.436-.556 1.838.728 2.351.728 2.351s1.154.213 1.666-.759a4.726 4.726 0 0 0 .514-1.601l1.444-.207s-.078-3.16 1.546-3.245c1.624-.084 1.795 0 1.795 0s3.504 1.197 3.89 2.094c.383.897.553 1.808-.6 1.936-1.154.127-2.863-.1-2.863-.1s-4.521-.712-4.136.569c.384 1.282.76 2.552.76 2.552s1.031-.073 1.923.126c.953.214 2.141.086 2.141.086l.211 2.222-.566.164c-.646.184-2.554.285-3.067.478-.513.192-6.089-.769-6.217-.577-.128.191-1.988.832-3.013.577-1.026-.256-1.284-2.692-1.284-2.692s-.127-1.154-.832-1.091l-5.578.513s-1.603.706-1.603 1.089c0 0-.449-.32-1.089 0-.641.32-1.603.257-1.86.77-.256.514-1.217 1.474-1.73 2.372-.512.896-1.986 1.025-2.372 2.628-.385 1.602-.705 4.294-.641 5.448.064 1.154.064 3.935 1.217 4.563 1.154.63 2.693 2.23 3.27 2.809.576.576 3.718 1.025 4.103.769.384-.256 1.666-.769 2.371-.769.706 0 2.244.065 2.692.448.448.385.961 1.282 1.347 2.244.383.961.769 2.563 1.089 3.141.321.577 1.604 1.666 1.154 2.757-.448 1.09-1.282 2.179-1.154 3.461.128 1.281.958 3.014 1.248 3.59.292.576 2.15 2.371 2.085 2.949-.063.576.45.384 1.154.642.705.255 3.719-.578 4.167-1.092.449-.513 1.091-2.05 1.923-2.884.833-.834 2.628-2.243 3.526-3.205.896-.962 1.794-1.795 1.858-3.013.062-1.219-.642-3.974 0-4.423s1.538-1.09 2.181-1.923c.641-.833 1.986-.833 2.947-3.525.962-2.692 1.281-3.462 1.089-3.591-.19-.128-1.665.514-1.923.898-.256.385-1.858.407-2.179.717-.32.309-1.666 0-1.666 0s.512-2.385.192-3.218c-.321-.832-1.924-4.102-2.437-5.256-.421-.946-.49-2.058-.292-2.784.082.118.165.236.229.348.227.41 1.49 1.841 2.009 3.336 1.109 3.205 2.35 5.51 2.35 5.51s1.667.089 4.444-2.05c1.89-1.453 3.892-1.562 4.231-2.307.641-1.411-2.01-2.694-2.01-2.694l-2.309.086-1.806-3.102.524-.189s1.925 2.308 2.821 2.308 3.333-.257 4.102.641c.769.897 3.077 2.435 3.462 3.974.386 1.538.198 3.727.897 4.487.984 1.07 1.923.899 1.923.899l1.154-2.694 2.778-3.159L92 49.522v.087c0 22.694-18.631 41.154-41.323 41.154z"></path><path d="M40.699 25.122s.598.342.769.513c.171.17 1.667.555 2.308.213.641-.341.983-1.282 1.453-1.325.47-.042.17 0 .085-.342-.085-.341.47-1.598.47-1.598l-1.282-1.093s-.812-1.624-.726-2.136c.084-.514-.614-1.457-.574-1.52S41 17.857 41 19.181v1.88s-.365.77-.578.983c-.215.213-.011 1.111.117 1.495.128.386.16 1.583.16 1.583zM40.229 24.479c.103-.207-.208-1.381-.335-1.833l-.05-.176-.212-.812c-.129-.256-.513.384-.756.513-.243.128-.227.555-.356.896-.128.342-.427 1.625-.427 1.625l.784.212c-.002.002 1.224-.168 1.352-.425zM70.313 67.559s-.128 1.923-1.026 2.5c-.896.577-1.537 1.602-1.537 2.179s-.192 1.218 0 1.795.682.962 1.238.897c.557-.063 1.197-1.217 1.325-1.73s.514-1.594.896-1.952c.385-.356.514-1.381.449-1.895-.063-.512.386-2.372-1.345-1.794z"></path></g><!----><g data-v-423bf9ae="" id="10a5e349-5651-4699-bd2c-f6a856a3fca0" fill="#000000" transform="matrix(0.531570313555101,0,0,0.531570313555101,114.39528888877898,57.48567233265984)"><path d="M7.20 9.21L7.20 9.21L7.20 9.21Q7.66 9.21 7.92 9.46L7.92 9.46L7.92 9.46Q8.18 9.72 8.18 10.16L8.18 10.16L8.18 10.16Q8.18 10.28 8.15 10.39L8.15 10.39L8.15 10.39Q8.13 10.51 8.11 10.60L8.11 10.60L8.11 10.60Q7.92 10.57 7.70 10.55L7.70 10.55L7.70 10.55Q7.48 10.53 7.17 10.53L7.17 10.53L7.17 10.53Q6.57 10.53 5.95 10.63L5.95 10.63L5.95 10.63Q5.33 10.74 4.77 10.81L4.77 10.81L4.77 10.81Q4.45 11.55 4.19 12.24L4.19 12.24L4.19 12.24Q3.92 12.94 3.73 13.51L3.73 13.51L3.73 13.51Q3.54 14.08 3.44 14.50L3.44 14.50L3.44 14.50Q3.33 14.92 3.32 15.13L3.32 15.13L3.32 15.13Q4.45 14.90 5.61 14.73L5.61 14.73L5.61 14.73Q6.76 14.56 8.04 14.48L8.04 14.48L8.04 14.48Q8.19 14.71 8.29 14.99L8.29 14.99L8.29 14.99Q8.40 15.27 8.40 15.60L8.40 15.60L8.40 15.60Q8.40 15.68 8.40 15.78L8.40 15.78L8.40 15.78Q8.40 15.88 8.37 15.97L8.37 15.97L8.37 15.97Q7.98 15.96 7.55 15.95L7.55 15.95L7.55 15.95Q7.11 15.95 6.41 15.95L6.41 15.95L6.41 15.95Q5.95 15.95 5.54 15.97L5.54 15.97L5.54 15.97Q5.12 15.99 4.70 16.03L4.70 16.03L4.70 16.03Q4.28 16.07 3.81 16.14L3.81 16.14L3.81 16.14Q3.35 16.21 2.76 16.31L2.76 16.31L2.76 16.31Q2.11 16.06 1.51 15.08L1.51 15.08L1.51 15.08Q1.75 14.57 2.18 13.54L2.18 13.54L2.18 13.54Q2.60 12.52 3.26 10.79L3.26 10.79L3.26 10.79Q2.63 10.60 2.44 10.09L2.44 10.09L2.44 10.09Q2.51 10.02 2.84 9.92L2.84 9.92L2.84 9.92Q3.18 9.81 3.67 9.70L3.67 9.70L3.67 9.70Q3.88 9.16 4.03 8.75L4.03 8.75L4.03 8.75Q4.17 8.34 4.28 7.99L4.28 7.99L4.28 7.99Q4.40 7.63 4.49 7.29L4.49 7.29L4.49 7.29Q4.58 6.94 4.66 6.54L4.66 6.54L4.66 6.54Q4.17 6.51 3.89 6.27L3.89 6.27L3.89 6.27Q3.61 6.02 3.61 5.63L3.61 5.63L3.61 5.63Q3.61 5.52 3.65 5.36L3.65 5.36L3.65 5.36Q3.68 5.21 3.72 5.10L3.72 5.10L3.72 5.10Q4.00 5.14 4.26 5.15L4.26 5.15L4.26 5.15Q4.52 5.17 4.94 5.17L4.94 5.17L4.94 5.17Q5.82 5.17 6.59 5.12L6.59 5.12L6.59 5.12Q7.36 5.07 7.99 5.01L7.99 5.01L7.99 5.01Q8.61 4.96 9.06 4.91L9.06 4.91L9.06 4.91Q9.51 4.86 9.74 4.86L9.74 4.86L9.74 4.86Q10.07 4.86 10.32 5.19L10.32 5.19L10.32 5.19Q10.57 5.53 10.70 6.15L10.70 6.15L10.70 6.15Q10.26 6.10 9.99 6.09L9.99 6.09L9.99 6.09Q9.72 6.08 9.51 6.08L9.51 6.08L9.51 6.08Q8.74 6.08 8.10 6.15L8.10 6.15L8.10 6.15Q7.46 6.23 6.87 6.31L6.87 6.31L6.87 6.31Q6.79 6.44 6.69 6.64L6.69 6.64L6.69 6.64Q6.58 6.83 6.41 7.18L6.41 7.18L6.41 7.18Q6.24 7.53 6.00 8.06L6.00 8.06L6.00 8.06Q5.75 8.60 5.40 9.39L5.40 9.39L5.40 9.39Q5.94 9.31 6.41 9.26L6.41 9.26L6.41 9.26Q6.87 9.21 7.20 9.21ZM24.58 15.23L24.58 15.23L24.58 15.23Q24.46 15.36 24.21 15.52L24.21 15.52L24.21 15.52Q23.97 15.68 23.69 15.81L23.69 15.81L23.69 15.81Q23.41 15.95 23.12 16.05L23.12 16.05L23.12 16.05Q22.83 16.16 22.65 16.17L22.65 16.17L22.65 16.17Q22.47 16.17 22.33 16.03L22.33 16.03L22.33 16.03Q22.19 15.89 22.04 15.39L22.04 15.39L22.04 15.39Q21.88 14.90 21.68 13.95L21.68 13.95L21.68 13.95Q21.48 13.01 21.17 11.38L21.17 11.38L21.17 11.38Q20.37 12.21 19.68 12.98L19.68 12.98L19.68 12.98Q19.00 13.75 18.51 14.41L18.51 14.41L18.51 14.41Q18.02 15.06 17.74 15.55L17.74 15.55L17.74 15.55Q17.46 16.04 17.46 16.30L17.46 16.30L17.46 16.30Q17.29 16.28 17.11 16.17L17.11 16.17L17.11 16.17Q16.94 16.06 16.80 15.90L16.80 15.90L16.80 15.90Q16.66 15.75 16.57 15.57L16.57 15.57L16.57 15.57Q16.48 15.39 16.48 15.22L16.48 15.22L16.48 15.22Q16.52 15.06 16.69 14.78L16.69 14.78L16.69 14.78Q16.86 14.50 17.11 14.18L17.11 14.18L17.11 14.18Q17.64 13.50 18.63 12.59L18.63 12.59L18.63 12.59Q19.61 11.69 21.01 10.60L21.01 10.60L21.01 10.60Q20.10 6.08 18.44 6.08L18.44 6.08L18.44 6.08Q18.61 5.67 18.98 5.36L18.98 5.36L18.98 5.36Q19.35 5.05 19.77 4.98L19.77 4.98L19.77 4.98Q20.23 4.98 20.52 5.10L20.52 5.10L20.52 5.10Q20.82 5.22 21.06 5.70L21.06 5.70L21.06 5.70Q21.29 6.17 21.53 7.13L21.53 7.13L21.53 7.13Q21.77 8.09 22.13 9.76L22.13 9.76L22.13 9.76Q22.60 9.27 23.02 8.76L23.02 8.76L23.02 8.76Q23.45 8.25 23.81 7.77L23.81 7.77L23.81 7.77Q24.18 7.29 24.46 6.89L24.46 6.89L24.46 6.89Q24.74 6.48 24.89 6.19L24.89 6.19L24.89 6.19Q25.05 5.92 25.05 5.64L25.05 5.64L25.05 5.64Q25.05 5.39 24.89 4.98L24.89 4.98L24.89 4.98Q25.34 5.25 25.57 5.48L25.57 5.48L25.57 5.48Q25.80 5.71 25.97 6.12L25.97 6.12L25.97 6.12Q25.94 6.45 25.78 6.79L25.78 6.79L25.78 6.79Q25.62 7.13 25.22 7.59L25.22 7.59L25.22 7.59Q24.82 8.06 24.12 8.75L24.12 8.75L24.12 8.75Q23.42 9.44 22.29 10.46L22.29 10.46L22.29 10.46Q22.55 11.72 22.81 12.59L22.81 12.59L22.81 12.59Q23.06 13.45 23.32 14.01L23.32 14.01L23.32 14.01Q23.59 14.56 23.90 14.85L23.90 14.85L23.90 14.85Q24.21 15.13 24.58 15.23ZM33.05 12.43L33.05 12.43L33.05 12.43Q33.05 11.45 33.29 10.51L33.29 10.51L33.29 10.51Q33.52 9.56 33.94 8.71L33.94 8.71L33.94 8.71Q34.36 7.87 34.94 7.16L34.94 7.16L34.94 7.16Q35.52 6.45 36.21 5.94L36.21 5.94L36.21 5.94Q36.90 5.42 37.69 5.13L37.69 5.13L37.69 5.13Q38.47 4.84 39.30 4.84L39.30 4.84L39.30 4.84Q40.26 4.84 40.80 5.25L40.80 5.25L40.80 5.25Q41.34 5.66 41.34 6.38L41.34 6.38L41.34 6.38Q41.34 6.66 41.27 6.96L41.27 6.96L41.27 6.96Q41.19 7.25 41.04 7.54L41.04 7.54L41.04 7.54Q40.89 7.83 40.70 8.09L40.70 8.09L40.70 8.09Q40.50 8.36 40.26 8.55L40.26 8.55L40.26 8.55Q39.90 8.50 39.63 8.22L39.63 8.22L39.63 8.22Q39.37 7.95 39.30 7.59L39.30 7.59L39.30 7.59Q39.79 7.18 40.08 6.74L40.08 6.74L40.08 6.74Q40.36 6.30 40.36 5.94L40.36 5.94L40.36 5.94Q40.36 5.32 39.59 5.32L39.59 5.32L39.59 5.32Q39.27 5.32 38.93 5.45L38.93 5.45L38.93 5.45Q38.58 5.59 38.23 5.82L38.23 5.82L38.23 5.82Q37.88 6.06 37.55 6.40L37.55 6.40L37.55 6.40Q37.23 6.73 36.95 7.14L36.95 7.14L36.95 7.14Q35 9.94 35 12.87L35 12.87L35 12.87Q35 13.90 35.32 14.53L35.32 14.53L35.32 14.53Q35.64 15.16 36.18 15.27L36.18 15.27L36.18 15.27Q36.78 15.13 37.70 14.50L37.70 14.50L37.70 14.50Q38.63 13.87 39.72 12.87L39.72 12.87L39.72 12.87Q39.86 13.01 39.89 13.16L39.89 13.16L39.89 13.16Q39.48 13.69 39.05 14.18L39.05 14.18L39.05 14.18Q38.61 14.67 38.19 15.08L38.19 15.08L38.19 15.08Q37.76 15.48 37.34 15.79L37.34 15.79L37.34 15.79Q36.93 16.10 36.58 16.27L36.58 16.27L36.58 16.27Q34.85 16.24 33.95 15.27L33.95 15.27L33.95 15.27Q33.05 14.31 33.05 12.43ZM53.65 9.21L53.65 9.21L53.65 9.21Q54.11 9.21 54.37 9.46L54.37 9.46L54.37 9.46Q54.63 9.72 54.63 10.16L54.63 10.16L54.63 10.16Q54.63 10.28 54.61 10.39L54.61 10.39L54.61 10.39Q54.59 10.51 54.56 10.60L54.56 10.60L54.56 10.60Q54.38 10.57 54.15 10.55L54.15 10.55L54.15 10.55Q53.93 10.53 53.62 10.53L53.62 10.53L53.62 10.53Q53.02 10.53 52.40 10.63L52.40 10.63L52.40 10.63Q51.79 10.74 51.23 10.81L51.23 10.81L51.23 10.81Q50.90 11.55 50.64 12.24L50.64 12.24L50.64 12.24Q50.37 12.94 50.18 13.51L50.18 13.51L50.18 13.51Q49.99 14.08 49.89 14.50L49.89 14.50L49.89 14.50Q49.78 14.92 49.77 15.13L49.77 15.13L49.77 15.13Q50.90 14.90 52.06 14.73L52.06 14.73L52.06 14.73Q53.21 14.56 54.49 14.48L54.49 14.48L54.49 14.48Q54.64 14.71 54.75 14.99L54.75 14.99L54.75 14.99Q54.85 15.27 54.85 15.60L54.85 15.60L54.85 15.60Q54.85 15.68 54.85 15.78L54.85 15.78L54.85 15.78Q54.85 15.88 54.82 15.97L54.82 15.97L54.82 15.97Q54.43 15.96 54.00 15.95L54.00 15.95L54.00 15.95Q53.56 15.95 52.86 15.95L52.86 15.95L52.86 15.95Q52.40 15.95 51.99 15.97L51.99 15.97L51.99 15.97Q51.58 15.99 51.16 16.03L51.16 16.03L51.16 16.03Q50.74 16.07 50.27 16.14L50.27 16.14L50.27 16.14Q49.80 16.21 49.21 16.31L49.21 16.31L49.21 16.31Q48.57 16.06 47.96 15.08L47.96 15.08L47.96 15.08Q48.20 14.57 48.63 13.54L48.63 13.54L48.63 13.54Q49.06 12.52 49.71 10.79L49.71 10.79L49.71 10.79Q49.08 10.60 48.89 10.09L48.89 10.09L48.89 10.09Q48.96 10.02 49.29 9.92L49.29 9.92L49.29 9.92Q49.63 9.81 50.12 9.70L50.12 9.70L50.12 9.70Q50.33 9.16 50.48 8.75L50.48 8.75L50.48 8.75Q50.62 8.34 50.74 7.99L50.74 7.99L50.74 7.99Q50.85 7.63 50.94 7.29L50.94 7.29L50.94 7.29Q51.03 6.94 51.11 6.54L51.11 6.54L51.11 6.54Q50.62 6.51 50.34 6.27L50.34 6.27L50.34 6.27Q50.06 6.02 50.06 5.63L50.06 5.63L50.06 5.63Q50.06 5.52 50.10 5.36L50.10 5.36L50.10 5.36Q50.13 5.21 50.18 5.10L50.18 5.10L50.18 5.10Q50.46 5.14 50.72 5.15L50.72 5.15L50.72 5.15Q50.97 5.17 51.39 5.17L51.39 5.17L51.39 5.17Q52.28 5.17 53.05 5.12L53.05 5.12L53.05 5.12Q53.82 5.07 54.44 5.01L54.44 5.01L54.44 5.01Q55.06 4.96 55.51 4.91L55.51 4.91L55.51 4.91Q55.96 4.86 56.20 4.86L56.20 4.86L56.20 4.86Q56.52 4.86 56.77 5.19L56.77 5.19L56.77 5.19Q57.02 5.53 57.15 6.15L57.15 6.15L57.15 6.15Q56.71 6.10 56.44 6.09L56.44 6.09L56.44 6.09Q56.17 6.08 55.96 6.08L55.96 6.08L55.96 6.08Q55.19 6.08 54.55 6.15L54.55 6.15L54.55 6.15Q53.91 6.23 53.33 6.31L53.33 6.31L53.33 6.31Q53.24 6.44 53.14 6.64L53.14 6.64L53.14 6.64Q53.03 6.83 52.86 7.18L52.86 7.18L52.86 7.18Q52.70 7.53 52.45 8.06L52.45 8.06L52.45 8.06Q52.21 8.60 51.86 9.39L51.86 9.39L51.86 9.39Q52.39 9.31 52.86 9.26L52.86 9.26L52.86 9.26Q53.33 9.21 53.65 9.21ZM68.60 14.38L68.60 14.38L68.60 14.38Q68.95 14.98 68.95 15.54L68.95 15.54L68.95 15.54Q68.95 15.67 68.93 15.77L68.93 15.77L68.93 15.77Q68.91 15.88 68.88 15.99L68.88 15.99L68.88 15.99Q68.64 15.96 68.38 15.95L68.38 15.95L68.38 15.95Q68.12 15.93 67.84 15.93L67.84 15.93L67.84 15.93Q67.51 15.93 67.17 15.95L67.17 15.95L67.17 15.95Q66.82 15.97 66.40 16.02L66.40 16.02L66.40 16.02Q65.98 16.06 65.46 16.13L65.46 16.13L65.46 16.13Q64.95 16.20 64.26 16.31L64.26 16.31L64.26 16.31Q63.94 16.20 63.62 15.87L63.62 15.87L63.62 15.87Q63.29 15.54 63.01 15.08L63.01 15.08L63.01 15.08Q63.15 14.77 63.36 14.31L63.36 14.31L63.36 14.31Q63.57 13.86 63.85 13.21L63.85 13.21L63.85 13.21Q64.13 12.56 64.48 11.68L64.48 11.68L64.48 11.68Q64.82 10.81 65.21 9.66L65.21 9.66L65.21 9.66Q65.46 8.90 65.65 8.33L65.65 8.33L65.65 8.33Q65.83 7.76 65.98 7.22L65.98 7.22L65.98 7.22Q66.12 6.68 66.26 6.09L66.26 6.09L66.26 6.09Q66.40 5.50 66.57 4.73L66.57 4.73L66.57 4.73Q67.13 4.84 67.54 5.14L67.54 5.14L67.54 5.14Q67.96 5.45 68.33 6.01L68.33 6.01L68.33 6.01Q68.22 6.19 68.04 6.59L68.04 6.59L68.04 6.59Q67.86 7 67.61 7.58L67.61 7.58L67.61 7.58Q67.37 8.16 67.07 8.90L67.07 8.90L67.07 8.90Q66.78 9.63 66.46 10.47L66.46 10.47L66.46 10.47Q66.15 11.30 65.86 12.03L65.86 12.03L65.86 12.03Q65.56 12.75 65.33 13.34L65.33 13.34L65.33 13.34Q65.10 13.93 64.96 14.35L64.96 14.35L64.96 14.35Q64.82 14.77 64.82 14.98L64.82 14.98L64.82 14.98Q65.04 14.97 65.23 14.95L65.23 14.95L65.23 14.95Q65.41 14.94 65.60 14.90L65.60 14.90L65.60 14.90Q65.80 14.87 66.03 14.82L66.03 14.82L66.03 14.82Q66.26 14.77 66.58 14.69L66.58 14.69L66.58 14.69Q66.86 14.62 67.10 14.57L67.10 14.57L67.10 14.57Q67.34 14.52 67.57 14.48L67.57 14.48L67.57 14.48Q67.80 14.45 68.05 14.43L68.05 14.43L68.05 14.43Q68.29 14.41 68.60 14.38ZM82.60 14.38L82.60 14.38L82.60 14.38Q82.95 14.98 82.95 15.54L82.95 15.54L82.95 15.54Q82.95 15.67 82.93 15.77L82.93 15.77L82.93 15.77Q82.91 15.88 82.88 15.99L82.88 15.99L82.88 15.99Q82.64 15.96 82.38 15.95L82.38 15.95L82.38 15.95Q82.12 15.93 81.84 15.93L81.84 15.93L81.84 15.93Q81.51 15.93 81.17 15.95L81.17 15.95L81.17 15.95Q80.82 15.97 80.40 16.02L80.40 16.02L80.40 16.02Q79.98 16.06 79.46 16.13L79.46 16.13L79.46 16.13Q78.95 16.20 78.26 16.31L78.26 16.31L78.26 16.31Q77.94 16.20 77.62 15.87L77.62 15.87L77.62 15.87Q77.29 15.54 77.01 15.08L77.01 15.08L77.01 15.08Q77.15 14.77 77.36 14.31L77.36 14.31L77.36 14.31Q77.57 13.86 77.85 13.21L77.85 13.21L77.85 13.21Q78.13 12.56 78.48 11.68L78.48 11.68L78.48 11.68Q78.82 10.81 79.21 9.66L79.21 9.66L79.21 9.66Q79.46 8.90 79.65 8.33L79.65 8.33L79.65 8.33Q79.83 7.76 79.98 7.22L79.98 7.22L79.98 7.22Q80.12 6.68 80.26 6.09L80.26 6.09L80.26 6.09Q80.40 5.50 80.57 4.73L80.57 4.73L80.57 4.73Q81.13 4.84 81.54 5.14L81.54 5.14L81.54 5.14Q81.96 5.45 82.33 6.01L82.33 6.01L82.33 6.01Q82.22 6.19 82.04 6.59L82.04 6.59L82.04 6.59Q81.86 7 81.61 7.58L81.61 7.58L81.61 7.58Q81.37 8.16 81.07 8.90L81.07 8.90L81.07 8.90Q80.78 9.63 80.46 10.47L80.46 10.47L80.46 10.47Q80.15 11.30 79.86 12.03L79.86 12.03L79.86 12.03Q79.56 12.75 79.33 13.34L79.33 13.34L79.33 13.34Q79.10 13.93 78.96 14.35L78.96 14.35L78.96 14.35Q78.82 14.77 78.82 14.98L78.82 14.98L78.82 14.98Q79.04 14.97 79.23 14.95L79.23 14.95L79.23 14.95Q79.41 14.94 79.60 14.90L79.60 14.90L79.60 14.90Q79.80 14.87 80.03 14.82L80.03 14.82L80.03 14.82Q80.26 14.77 80.58 14.69L80.58 14.69L80.58 14.69Q80.86 14.62 81.10 14.57L81.10 14.57L81.10 14.57Q81.34 14.52 81.57 14.48L81.57 14.48L81.57 14.48Q81.80 14.45 82.05 14.43L82.05 14.43L82.05 14.43Q82.29 14.41 82.60 14.38ZM97.02 9.21L97.02 9.21L97.02 9.21Q97.48 9.21 97.74 9.46L97.74 9.46L97.74 9.46Q98.00 9.72 98.00 10.16L98.00 10.16L98.00 10.16Q98.00 10.28 97.98 10.39L97.98 10.39L97.98 10.39Q97.96 10.51 97.93 10.60L97.93 10.60L97.93 10.60Q97.75 10.57 97.52 10.55L97.52 10.55L97.52 10.55Q97.30 10.53 96.99 10.53L96.99 10.53L96.99 10.53Q96.39 10.53 95.77 10.63L95.77 10.63L95.77 10.63Q95.16 10.74 94.60 10.81L94.60 10.81L94.60 10.81Q94.28 11.55 94.01 12.24L94.01 12.24L94.01 12.24Q93.74 12.94 93.56 13.51L93.56 13.51L93.56 13.51Q93.37 14.08 93.26 14.50L93.26 14.50L93.26 14.50Q93.16 14.92 93.14 15.13L93.14 15.13L93.14 15.13Q94.28 14.90 95.43 14.73L95.43 14.73L95.43 14.73Q96.59 14.56 97.86 14.48L97.86 14.48L97.86 14.48Q98.01 14.71 98.12 14.99L98.12 14.99L98.12 14.99Q98.22 15.27 98.22 15.60L98.22 15.60L98.22 15.60Q98.22 15.68 98.22 15.78L98.22 15.78L98.22 15.78Q98.22 15.88 98.20 15.97L98.20 15.97L98.20 15.97Q97.80 15.96 97.37 15.95L97.37 15.95L97.37 15.95Q96.94 15.95 96.24 15.95L96.24 15.95L96.24 15.95Q95.77 15.95 95.36 15.97L95.36 15.97L95.36 15.97Q94.95 15.99 94.53 16.03L94.53 16.03L94.53 16.03Q94.11 16.07 93.64 16.14L93.64 16.14L93.64 16.14Q93.17 16.21 92.58 16.31L92.58 16.31L92.58 16.31Q91.94 16.06 91.34 15.08L91.34 15.08L91.34 15.08Q91.57 14.57 92.00 13.54L92.00 13.54L92.00 13.54Q92.43 12.52 93.09 10.79L93.09 10.79L93.09 10.79Q92.46 10.60 92.26 10.09L92.26 10.09L92.26 10.09Q92.33 10.02 92.67 9.92L92.67 9.92L92.67 9.92Q93.00 9.81 93.49 9.70L93.49 9.70L93.49 9.70Q93.70 9.16 93.85 8.75L93.85 8.75L93.85 8.75Q94.00 8.34 94.11 7.99L94.11 7.99L94.11 7.99Q94.22 7.63 94.31 7.29L94.31 7.29L94.31 7.29Q94.40 6.94 94.49 6.54L94.49 6.54L94.49 6.54Q94.00 6.51 93.72 6.27L93.72 6.27L93.72 6.27Q93.44 6.02 93.44 5.63L93.44 5.63L93.44 5.63Q93.44 5.52 93.47 5.36L93.47 5.36L93.47 5.36Q93.51 5.21 93.55 5.10L93.55 5.10L93.55 5.10Q93.83 5.14 94.09 5.15L94.09 5.15L94.09 5.15Q94.35 5.17 94.77 5.17L94.77 5.17L94.77 5.17Q95.65 5.17 96.42 5.12L96.42 5.12L96.42 5.12Q97.19 5.07 97.81 5.01L97.81 5.01L97.81 5.01Q98.43 4.96 98.88 4.91L98.88 4.91L98.88 4.91Q99.33 4.86 99.57 4.86L99.57 4.86L99.57 4.86Q99.89 4.86 100.14 5.19L100.14 5.19L100.14 5.19Q100.39 5.53 100.52 6.15L100.52 6.15L100.52 6.15Q100.09 6.10 99.81 6.09L99.81 6.09L99.81 6.09Q99.54 6.08 99.33 6.08L99.33 6.08L99.33 6.08Q98.56 6.08 97.92 6.15L97.92 6.15L97.92 6.15Q97.29 6.23 96.70 6.31L96.70 6.31L96.70 6.31Q96.61 6.44 96.51 6.64L96.51 6.64L96.51 6.64Q96.40 6.83 96.24 7.18L96.24 7.18L96.24 7.18Q96.07 7.53 95.82 8.06L95.82 8.06L95.82 8.06Q95.58 8.60 95.23 9.39L95.23 9.39L95.23 9.39Q95.76 9.31 96.23 9.26L96.23 9.26L96.23 9.26Q96.70 9.21 97.02 9.21ZM108.01 16.24L108.01 16.24L108.01 16.24Q107.21 16.00 106.93 15.79L106.93 15.79L106.93 15.79Q106.65 15.57 106.65 15.19L106.65 15.19L106.65 15.19Q106.65 14.77 106.85 14.01L106.85 14.01L106.85 14.01Q107.04 13.24 107.36 12.31L107.36 12.31L107.36 12.31Q107.67 11.37 108.08 10.35L108.08 10.35L108.08 10.35Q108.49 9.32 108.91 8.39L108.91 8.39L108.91 8.39Q109.33 7.45 109.73 6.67L109.73 6.67L109.73 6.67Q110.12 5.89 110.43 5.46L110.43 5.46L110.33 4.87L110.33 4.87Q110.53 4.87 110.88 4.97L110.88 4.97L110.88 4.97Q111.23 5.07 111.59 5.21L111.59 5.21L111.59 5.21Q111.94 5.35 112.22 5.49L112.22 5.49L112.22 5.49Q112.49 5.64 112.52 5.74L112.52 5.74L112.52 5.74Q112.45 6.08 112.41 6.76L112.41 6.76L112.41 6.76Q112.36 7.43 112.36 8.20L112.36 8.20L112.36 8.20Q112.36 9.73 112.48 11.19L112.48 11.19L112.48 11.19Q112.60 12.66 113.04 14.17L113.04 14.17L113.04 14.17Q113.26 13.05 113.52 11.94L113.52 11.94L113.52 11.94Q113.78 10.82 114.06 9.81L114.06 9.81L114.06 9.81Q114.34 8.79 114.62 7.92L114.62 7.92L114.62 7.92Q114.90 7.06 115.16 6.40L115.16 6.40L115.16 6.40Q115.42 5.75 115.64 5.38L115.64 5.38L115.64 5.38Q115.86 5.01 116.05 4.98L116.05 4.98L116.05 4.98Q116.20 5.01 116.38 5.10L116.38 5.10L116.38 5.10Q116.56 5.19 116.73 5.32L116.73 5.32L116.73 5.32Q116.90 5.45 117.04 5.60L117.04 5.60L117.04 5.60Q117.18 5.75 117.26 5.91L117.26 5.91L117.26 5.91Q116.82 6.09 116.38 6.76L116.38 6.76L116.38 6.76Q115.93 7.43 115.54 8.39L115.54 8.39L115.54 8.39Q115.14 9.35 114.79 10.47L114.79 10.47L114.79 10.47Q114.45 11.59 114.19 12.68L114.19 12.68L114.19 12.68Q113.93 13.76 113.79 14.69L113.79 14.69L113.79 14.69Q113.64 15.61 113.62 16.17L113.62 16.17L113.62 16.17Q113.62 16.20 113.64 16.21L113.64 16.21L113.64 16.21Q113.60 16.23 113.55 16.23L113.55 16.23L113.55 16.23Q113.50 16.23 113.46 16.23L113.46 16.23L113.46 16.23Q112.81 16.23 112.32 16.07L112.32 16.07L112.32 16.07Q111.82 15.90 111.66 15.61L111.66 15.61L111.66 15.61Q111.37 14.43 111.17 13.34L111.17 13.34L111.17 13.34Q110.98 12.25 110.85 11.16L110.85 11.16L110.85 11.16Q110.71 10.07 110.64 8.95L110.64 8.95L110.64 8.95Q110.56 7.84 110.52 6.62L110.52 6.62L110.52 6.62Q110.25 7.04 109.96 7.72L109.96 7.72L109.96 7.72Q109.66 8.40 109.38 9.21L109.38 9.21L109.38 9.21Q109.10 10.02 108.84 10.92L108.84 10.92L108.84 10.92Q108.58 11.82 108.39 12.67L108.39 12.67L108.39 12.67Q108.19 13.52 108.08 14.29L108.08 14.29L108.08 14.29Q107.97 15.05 107.97 15.61L107.97 15.61L107.97 15.61Q107.97 15.90 107.98 16.03L107.98 16.03L107.98 16.03Q107.98 16.16 108.01 16.24ZM123.90 12.43L123.90 12.43L123.90 12.43Q123.90 11.45 124.13 10.51L124.13 10.51L124.13 10.51Q124.36 9.56 124.78 8.71L124.78 8.71L124.78 8.71Q125.20 7.87 125.78 7.16L125.78 7.16L125.78 7.16Q126.36 6.45 127.06 5.94L127.06 5.94L127.06 5.94Q127.75 5.42 128.53 5.13L128.53 5.13L128.53 5.13Q129.32 4.84 130.14 4.84L130.14 4.84L130.14 4.84Q131.11 4.84 131.65 5.25L131.65 5.25L131.65 5.25Q132.19 5.66 132.19 6.38L132.19 6.38L132.19 6.38Q132.19 6.66 132.11 6.96L132.11 6.96L132.11 6.96Q132.03 7.25 131.89 7.54L131.89 7.54L131.89 7.54Q131.74 7.83 131.54 8.09L131.54 8.09L131.54 8.09Q131.35 8.36 131.11 8.55L131.11 8.55L131.11 8.55Q130.75 8.50 130.48 8.22L130.48 8.22L130.48 8.22Q130.21 7.95 130.14 7.59L130.14 7.59L130.14 7.59Q130.63 7.18 130.92 6.74L130.92 6.74L130.92 6.74Q131.21 6.30 131.21 5.94L131.21 5.94L131.21 5.94Q131.21 5.32 130.44 5.32L130.44 5.32L130.44 5.32Q130.12 5.32 129.77 5.45L129.77 5.45L129.77 5.45Q129.43 5.59 129.08 5.82L129.08 5.82L129.08 5.82Q128.73 6.06 128.40 6.40L128.40 6.40L128.40 6.40Q128.07 6.73 127.79 7.14L127.79 7.14L127.79 7.14Q125.85 9.94 125.85 12.87L125.85 12.87L125.85 12.87Q125.85 13.90 126.17 14.53L126.17 14.53L126.17 14.53Q126.49 15.16 127.02 15.27L127.02 15.27L127.02 15.27Q127.62 15.13 128.55 14.50L128.55 14.50L128.55 14.50Q129.47 13.87 130.56 12.87L130.56 12.87L130.56 12.87Q130.70 13.01 130.73 13.16L130.73 13.16L130.73 13.16Q130.33 13.69 129.89 14.18L129.89 14.18L129.89 14.18Q129.46 14.67 129.03 15.08L129.03 15.08L129.03 15.08Q128.60 15.48 128.19 15.79L128.19 15.79L128.19 15.79Q127.78 16.10 127.43 16.27L127.43 16.27L127.43 16.27Q125.69 16.24 124.80 15.27L124.80 15.27L124.80 15.27Q123.90 14.31 123.90 12.43ZM144.49 9.21L144.49 9.21L144.49 9.21Q144.96 9.21 145.22 9.46L145.22 9.46L145.22 9.46Q145.47 9.72 145.47 10.16L145.47 10.16L145.47 10.16Q145.47 10.28 145.45 10.39L145.45 10.39L145.45 10.39Q145.43 10.51 145.40 10.60L145.40 10.60L145.40 10.60Q145.22 10.57 145.00 10.55L145.00 10.55L145.00 10.55Q144.77 10.53 144.47 10.53L144.47 10.53L144.47 10.53Q143.86 10.53 143.25 10.63L143.25 10.63L143.25 10.63Q142.63 10.74 142.07 10.81L142.07 10.81L142.07 10.81Q141.75 11.55 141.48 12.24L141.48 12.24L141.48 12.24Q141.22 12.94 141.03 13.51L141.03 13.51L141.03 13.51Q140.84 14.08 140.74 14.50L140.74 14.50L140.74 14.50Q140.63 14.92 140.62 15.13L140.62 15.13L140.62 15.13Q141.75 14.90 142.91 14.73L142.91 14.73L142.91 14.73Q144.06 14.56 145.33 14.48L145.33 14.48L145.33 14.48Q145.49 14.71 145.59 14.99L145.59 14.99L145.59 14.99Q145.70 15.27 145.70 15.60L145.70 15.60L145.70 15.60Q145.70 15.68 145.70 15.78L145.70 15.78L145.70 15.78Q145.70 15.88 145.67 15.97L145.67 15.97L145.67 15.97Q145.28 15.96 144.84 15.95L144.84 15.95L144.84 15.95Q144.41 15.95 143.71 15.95L143.71 15.95L143.71 15.95Q143.25 15.95 142.84 15.97L142.84 15.97L142.84 15.97Q142.42 15.99 142.00 16.03L142.00 16.03L142.00 16.03Q141.58 16.07 141.11 16.14L141.11 16.14L141.11 16.14Q140.64 16.21 140.06 16.31L140.06 16.31L140.06 16.31Q139.41 16.06 138.81 15.08L138.81 15.08L138.81 15.08Q139.05 14.57 139.47 13.54L139.47 13.54L139.47 13.54Q139.90 12.52 140.56 10.79L140.56 10.79L140.56 10.79Q139.93 10.60 139.73 10.09L139.73 10.09L139.73 10.09Q139.80 10.02 140.14 9.92L140.14 9.92L140.14 9.92Q140.48 9.81 140.97 9.70L140.97 9.70L140.97 9.70Q141.18 9.16 141.32 8.75L141.32 8.75L141.32 8.75Q141.47 8.34 141.58 7.99L141.58 7.99L141.58 7.99Q141.69 7.63 141.78 7.29L141.78 7.29L141.78 7.29Q141.88 6.94 141.96 6.54L141.96 6.54L141.96 6.54Q141.47 6.51 141.19 6.27L141.19 6.27L141.19 6.27Q140.91 6.02 140.91 5.63L140.91 5.63L140.91 5.63Q140.91 5.52 140.94 5.36L140.94 5.36L140.94 5.36Q140.98 5.21 141.02 5.10L141.02 5.10L141.02 5.10Q141.30 5.14 141.56 5.15L141.56 5.15L141.56 5.15Q141.82 5.17 142.24 5.17L142.24 5.17L142.24 5.17Q143.12 5.17 143.89 5.12L143.89 5.12L143.89 5.12Q144.66 5.07 145.28 5.01L145.28 5.01L145.28 5.01Q145.91 4.96 146.36 4.91L146.36 4.91L146.36 4.91Q146.80 4.86 147.04 4.86L147.04 4.86L147.04 4.86Q147.36 4.86 147.62 5.19L147.62 5.19L147.62 5.19Q147.87 5.53 147.99 6.15L147.99 6.15L147.99 6.15Q147.56 6.10 147.29 6.09L147.29 6.09L147.29 6.09Q147.01 6.08 146.80 6.08L146.80 6.08L146.80 6.08Q146.03 6.08 145.40 6.15L145.40 6.15L145.40 6.15Q144.76 6.23 144.17 6.31L144.17 6.31L144.17 6.31Q144.09 6.44 143.98 6.64L143.98 6.64L143.98 6.64Q143.88 6.83 143.71 7.18L143.71 7.18L143.71 7.18Q143.54 7.53 143.30 8.06L143.30 8.06L143.30 8.06Q143.05 8.60 142.70 9.39L142.70 9.39L142.70 9.39Q143.23 9.31 143.70 9.26L143.70 9.26L143.70 9.26Q144.17 9.21 144.49 9.21ZM164.99 14.38L164.99 14.38L164.99 14.38Q164.99 13.87 165.15 13.07L165.15 13.07L165.15 13.07Q165.31 12.26 165.57 11.33L165.57 11.33L165.57 11.33Q165.83 10.40 166.17 9.43L166.17 9.43L166.17 9.43Q166.50 8.46 166.85 7.60L166.85 7.60L166.85 7.60Q167.20 6.75 167.54 6.10L167.54 6.10L167.54 6.10Q167.87 5.46 168.14 5.18L168.14 5.18L168.14 5.18Q168.28 5.19 168.51 5.29L168.51 5.29L168.51 5.29Q168.74 5.38 168.98 5.50L168.98 5.50L168.98 5.50Q169.22 5.63 169.41 5.78L169.41 5.78L169.41 5.78Q169.61 5.92 169.67 6.05L169.67 6.05L169.67 6.05Q169.26 6.41 168.86 7.15L168.86 7.15L168.86 7.15Q168.46 7.88 168.09 8.82L168.09 8.82L168.09 8.82Q167.72 9.76 167.40 10.80L167.40 10.80L167.40 10.80Q167.08 11.84 166.84 12.82L166.84 12.82L166.84 12.82Q166.60 13.80 166.47 14.64L166.47 14.64L166.47 14.64Q166.33 15.48 166.33 16.00L166.33 16.00L166.33 16.00Q166.33 16.24 166.38 16.30L166.38 16.30L166.38 16.30Q166.07 16.28 165.93 16.19L165.93 16.19L165.93 16.19Q165.79 16.10 165.71 16.00L165.71 16.00L165.71 16.00Q165.63 15.89 165.57 15.79L165.57 15.79L165.57 15.79Q165.51 15.68 165.38 15.62L165.38 15.62L165.38 15.62Q165.28 15.58 165.21 15.43L165.21 15.43L165.21 15.43Q165.14 15.27 165.09 15.09L165.09 15.09L165.09 15.09Q165.05 14.90 165.02 14.70L165.02 14.70L165.02 14.70Q164.99 14.50 164.99 14.38ZM177.23 16.24L177.23 16.24L177.23 16.24Q176.43 16.00 176.15 15.79L176.15 15.79L176.15 15.79Q175.87 15.57 175.87 15.19L175.87 15.19L175.87 15.19Q175.87 14.77 176.06 14.01L176.06 14.01L176.06 14.01Q176.26 13.24 176.57 12.31L176.57 12.31L176.57 12.31Q176.89 11.37 177.30 10.35L177.30 10.35L177.30 10.35Q177.70 9.32 178.12 8.39L178.12 8.39L178.12 8.39Q178.54 7.45 178.94 6.67L178.94 6.67L178.94 6.67Q179.34 5.89 179.65 5.46L179.65 5.46L179.55 4.87L179.55 4.87Q179.75 4.87 180.10 4.97L180.10 4.97L180.10 4.97Q180.45 5.07 180.80 5.21L180.80 5.21L180.80 5.21Q181.16 5.35 181.43 5.49L181.43 5.49L181.43 5.49Q181.71 5.64 181.73 5.74L181.73 5.74L181.73 5.74Q181.66 6.08 181.62 6.76L181.62 6.76L181.62 6.76Q181.58 7.43 181.58 8.20L181.58 8.20L181.58 8.20Q181.58 9.73 181.70 11.19L181.70 11.19L181.70 11.19Q181.82 12.66 182.25 14.17L182.25 14.17L182.25 14.17Q182.48 13.05 182.74 11.94L182.74 11.94L182.74 11.94Q182.99 10.82 183.27 9.81L183.27 9.81L183.27 9.81Q183.55 8.79 183.83 7.92L183.83 7.92L183.83 7.92Q184.11 7.06 184.37 6.40L184.37 6.40L184.37 6.40Q184.63 5.75 184.86 5.38L184.86 5.38L184.86 5.38Q185.08 5.01 185.26 4.98L185.26 4.98L185.26 4.98Q185.42 5.01 185.60 5.10L185.60 5.10L185.60 5.10Q185.78 5.19 185.95 5.32L185.95 5.32L185.95 5.32Q186.12 5.45 186.26 5.60L186.26 5.60L186.26 5.60Q186.40 5.75 186.48 5.91L186.48 5.91L186.48 5.91Q186.03 6.09 185.59 6.76L185.59 6.76L185.59 6.76Q185.15 7.43 184.75 8.39L184.75 8.39L184.75 8.39Q184.35 9.35 184.01 10.47L184.01 10.47L184.01 10.47Q183.67 11.59 183.41 12.68L183.41 12.68L183.41 12.68Q183.15 13.76 183.00 14.69L183.00 14.69L183.00 14.69Q182.85 15.61 182.84 16.17L182.84 16.17L182.84 16.17Q182.84 16.20 182.85 16.21L182.85 16.21L182.85 16.21Q182.81 16.23 182.76 16.23L182.76 16.23L182.76 16.23Q182.71 16.23 182.67 16.23L182.67 16.23L182.67 16.23Q182.03 16.23 181.53 16.07L181.53 16.07L181.53 16.07Q181.03 15.90 180.88 15.61L180.88 15.61L180.88 15.61Q180.59 14.43 180.39 13.34L180.39 13.34L180.39 13.34Q180.19 12.25 180.06 11.16L180.06 11.16L180.06 11.16Q179.93 10.07 179.85 8.95L179.85 8.95L179.85 8.95Q179.77 7.84 179.73 6.62L179.73 6.62L179.73 6.62Q179.47 7.04 179.17 7.72L179.17 7.72L179.17 7.72Q178.88 8.40 178.60 9.21L178.60 9.21L178.60 9.21Q178.32 10.02 178.06 10.92L178.06 10.92L178.06 10.92Q177.80 11.82 177.60 12.67L177.60 12.67L177.60 12.67Q177.41 13.52 177.30 14.29L177.30 14.29L177.30 14.29Q177.18 15.05 177.18 15.61L177.18 15.61L177.18 15.61Q177.18 15.90 177.19 16.03L177.19 16.03L177.19 16.03Q177.20 16.16 177.23 16.24ZM210.63 10.72L210.63 10.72L210.63 10.72Q210.99 10.72 211.20 10.98L211.20 10.98L211.20 10.98Q211.41 11.23 211.41 11.68L211.41 11.68L211.41 11.68Q211.41 11.79 211.40 11.91L211.40 11.91L211.40 11.91Q211.39 12.03 211.36 12.11L211.36 12.11L211.36 12.11Q211.06 12.04 210.71 12.03L210.71 12.03L210.71 12.03Q210.63 12.64 210.27 13.32L210.27 13.32L210.27 13.32Q209.90 14 209.38 14.60L209.38 14.60L209.38 14.60Q208.87 15.19 208.25 15.64L208.25 15.64L208.25 15.64Q207.63 16.09 207.03 16.24L207.03 16.24L207.03 16.24Q205.16 16.20 204.30 15.27L204.30 15.27L204.30 15.27Q203.43 14.34 203.43 12.36L203.43 12.36L203.43 12.36Q203.43 10.92 203.97 9.57L203.97 9.57L203.97 9.57Q204.50 8.22 205.38 7.17L205.38 7.17L205.38 7.17Q206.26 6.12 207.40 5.48L207.40 5.48L207.40 5.48Q208.54 4.84 209.78 4.84L209.78 4.84L209.78 4.84Q210.74 4.84 211.28 5.25L211.28 5.25L211.28 5.25Q211.82 5.66 211.82 6.40L211.82 6.40L211.82 6.40Q211.82 6.89 211.59 7.31L211.59 7.31L211.59 7.31Q211.36 7.73 210.83 8.22L210.83 8.22L210.83 8.22Q210.50 8.12 210.27 7.88L210.27 7.88L210.27 7.88Q210.03 7.63 209.97 7.31L209.97 7.31L209.97 7.31Q210.45 6.96 210.64 6.66L210.64 6.66L210.64 6.66Q210.84 6.37 210.84 5.96L210.84 5.96L210.84 5.96Q210.84 5.32 210.07 5.32L210.07 5.32L210.07 5.32Q209.44 5.32 208.72 5.79L208.72 5.79L208.72 5.79Q208.00 6.26 207.27 7.14L207.27 7.14L207.27 7.14Q206.23 8.39 205.76 9.71L205.76 9.71L205.76 9.71Q205.28 11.03 205.28 12.68L205.28 12.68L205.28 12.68Q205.28 13.30 205.41 13.80L205.41 13.80L205.41 13.80Q205.53 14.31 205.74 14.69L205.74 14.69L205.74 14.69Q205.95 15.06 206.24 15.29L206.24 15.29L206.24 15.29Q206.53 15.51 206.86 15.54L206.86 15.54L206.86 15.54Q207.31 15.44 207.76 15.09L207.76 15.09L207.76 15.09Q208.21 14.73 208.58 14.25L208.58 14.25L208.58 14.25Q208.95 13.76 209.21 13.21L209.21 13.21L209.21 13.21Q209.47 12.66 209.52 12.15L209.52 12.15L209.52 12.15Q209.13 12.24 208.78 12.31L208.78 12.31L208.78 12.31Q208.42 12.39 208.10 12.39L208.10 12.39L208.10 12.39Q207.68 12.39 207.36 12.18L207.36 12.18L207.36 12.18Q207.05 11.97 206.93 11.61L206.93 11.61L206.93 11.61Q207.19 11.47 207.67 11.31L207.67 11.31L207.67 11.31Q208.15 11.16 208.70 11.03L208.70 11.03L208.70 11.03Q209.24 10.89 209.77 10.81L209.77 10.81L209.77 10.81Q210.29 10.72 210.63 10.72ZM224.76 9.21L224.76 9.21L224.76 9.21Q225.22 9.21 225.48 9.46L225.48 9.46L225.48 9.46Q225.74 9.72 225.74 10.16L225.74 10.16L225.74 10.16Q225.74 10.28 225.72 10.39L225.72 10.39L225.72 10.39Q225.69 10.51 225.67 10.60L225.67 10.60L225.67 10.60Q225.48 10.57 225.26 10.55L225.26 10.55L225.26 10.55Q225.04 10.53 224.73 10.53L224.73 10.53L224.73 10.53Q224.13 10.53 223.51 10.63L223.51 10.63L223.51 10.63Q222.89 10.74 222.33 10.81L222.33 10.81L222.33 10.81Q222.01 11.55 221.75 12.24L221.75 12.24L221.75 12.24Q221.48 12.94 221.29 13.51L221.29 13.51L221.29 13.51Q221.10 14.08 221.00 14.50L221.00 14.50L221.00 14.50Q220.89 14.92 220.88 15.13L220.88 15.13L220.88 15.13Q222.01 14.90 223.17 14.73L223.17 14.73L223.17 14.73Q224.32 14.56 225.60 14.48L225.60 14.48L225.60 14.48Q225.75 14.71 225.85 14.99L225.85 14.99L225.85 14.99Q225.96 15.27 225.96 15.60L225.96 15.60L225.96 15.60Q225.96 15.68 225.96 15.78L225.96 15.78L225.96 15.78Q225.96 15.88 225.93 15.97L225.93 15.97L225.93 15.97Q225.54 15.96 225.11 15.95L225.11 15.95L225.11 15.95Q224.67 15.95 223.97 15.95L223.97 15.95L223.97 15.95Q223.51 15.95 223.10 15.97L223.10 15.97L223.10 15.97Q222.68 15.99 222.26 16.03L222.26 16.03L222.26 16.03Q221.84 16.07 221.38 16.14L221.38 16.14L221.38 16.14Q220.91 16.21 220.32 16.31L220.32 16.31L220.32 16.31Q219.67 16.06 219.07 15.08L219.07 15.08L219.07 15.08Q219.31 14.57 219.74 13.54L219.74 13.54L219.74 13.54Q220.16 12.52 220.82 10.79L220.82 10.79L220.82 10.79Q220.19 10.60 220.00 10.09L220.00 10.09L220.00 10.09Q220.07 10.02 220.40 9.92L220.40 9.92L220.40 9.92Q220.74 9.81 221.23 9.70L221.23 9.70L221.23 9.70Q221.44 9.16 221.59 8.75L221.59 8.75L221.59 8.75Q221.73 8.34 221.84 7.99L221.84 7.99L221.84 7.99Q221.96 7.63 222.05 7.29L222.05 7.29L222.05 7.29Q222.14 6.94 222.22 6.54L222.22 6.54L222.22 6.54Q221.73 6.51 221.45 6.27L221.45 6.27L221.45 6.27Q221.17 6.02 221.17 5.63L221.17 5.63L221.17 5.63Q221.17 5.52 221.21 5.36L221.21 5.36L221.21 5.36Q221.24 5.21 221.28 5.10L221.28 5.10L221.28 5.10Q221.56 5.14 221.82 5.15L221.82 5.15L221.82 5.15Q222.08 5.17 222.50 5.17L222.50 5.17L222.50 5.17Q223.38 5.17 224.15 5.12L224.15 5.12L224.15 5.12Q224.92 5.07 225.55 5.01L225.55 5.01L225.55 5.01Q226.17 4.96 226.62 4.91L226.62 4.91L226.62 4.91Q227.07 4.86 227.30 4.86L227.30 4.86L227.30 4.86Q227.63 4.86 227.88 5.19L227.88 5.19L227.88 5.19Q228.13 5.53 228.26 6.15L228.26 6.15L228.26 6.15Q227.82 6.10 227.55 6.09L227.55 6.09L227.55 6.09Q227.28 6.08 227.07 6.08L227.07 6.08L227.07 6.08Q226.30 6.08 225.66 6.15L225.66 6.15L225.66 6.15Q225.02 6.23 224.43 6.31L224.43 6.31L224.43 6.31Q224.35 6.44 224.25 6.64L224.25 6.64L224.25 6.64Q224.14 6.83 223.97 7.18L223.97 7.18L223.97 7.18Q223.80 7.53 223.56 8.06L223.56 8.06L223.56 8.06Q223.31 8.60 222.96 9.39L222.96 9.39L222.96 9.39Q223.50 9.31 223.97 9.26L223.97 9.26L223.97 9.26Q224.43 9.21 224.76 9.21ZM240.87 4.98L240.87 4.98L240.87 4.98Q241.14 5.10 241.42 5.27L241.42 5.27L241.42 5.27Q241.70 5.45 241.93 5.63L241.93 5.63L241.93 5.63Q242.17 5.81 242.33 5.98L242.33 5.98L242.33 5.98Q242.49 6.16 242.51 6.27L242.51 6.27L242.51 6.27Q242.27 6.22 242.03 6.20L242.03 6.20L242.03 6.20Q241.79 6.17 241.60 6.17L241.60 6.17L241.60 6.17Q240.97 6.17 240.34 6.48L240.34 6.48L240.34 6.48Q239.72 6.79 239.16 7.32L239.16 7.32L239.16 7.32Q238.60 7.85 238.13 8.57L238.13 8.57L238.13 8.57Q237.65 9.28 237.31 10.09L237.31 10.09L237.31 10.09Q236.96 10.91 236.77 11.77L236.77 11.77L236.77 11.77Q236.57 12.64 236.57 13.48L236.57 13.48L236.57 13.48Q236.57 14.57 236.94 15.11L236.94 15.11L236.94 15.11Q237.30 15.64 238 15.64L238 15.64L238 15.64Q238.34 15.64 238.73 15.51L238.73 15.51L238.73 15.51Q239.12 15.37 239.53 15.13L239.53 15.13L239.53 15.13Q239.93 14.90 240.32 14.56L240.32 14.56L240.32 14.56Q240.72 14.22 241.05 13.82L241.05 13.82L241.05 13.82Q241.54 13.23 241.93 12.48L241.93 12.48L241.93 12.48Q242.33 11.73 242.60 10.89L242.60 10.89L242.60 10.89Q242.87 10.05 243.02 9.16L243.02 9.16L243.02 9.16Q243.17 8.27 243.17 7.42L243.17 7.42L243.17 7.42Q243.17 7.08 243.15 6.85L243.15 6.85L243.15 6.85Q243.14 6.62 243.12 6.46L243.12 6.46L243.12 6.46Q243.10 6.30 243.08 6.20L243.08 6.20L243.08 6.20Q243.07 6.10 243.05 6.03L243.05 6.03L243.05 6.03Q243.22 6.12 243.43 6.24L243.43 6.24L243.43 6.24Q243.63 6.36 243.80 6.59L243.80 6.59L243.80 6.59Q243.98 6.82 244.10 7.20L244.10 7.20L244.10 7.20Q244.22 7.57 244.22 8.18L244.22 8.18L244.22 8.18Q244.22 9.16 243.99 10.10L243.99 10.10L243.99 10.10Q243.75 11.05 243.34 11.90L243.34 11.90L243.34 11.90Q242.93 12.75 242.37 13.50L242.37 13.50L242.37 13.50Q241.81 14.24 241.16 14.80L241.16 14.80L241.16 14.80Q240.32 15.54 239.37 15.95L239.37 15.95L239.37 15.95Q238.42 16.35 237.54 16.35L237.54 16.35L237.54 16.35Q236.25 16.35 235.57 15.53L235.57 15.53L235.57 15.53Q234.89 14.71 234.89 13.12L234.89 13.12L234.89 13.12Q234.89 12.26 235.08 11.31L235.08 11.31L235.08 11.31Q235.27 10.36 235.61 9.44L235.61 9.44L235.61 9.44Q235.96 8.51 236.43 7.68L236.43 7.68L236.43 7.68Q236.91 6.85 237.48 6.21L237.48 6.21L237.48 6.21Q238.04 5.57 238.69 5.19L238.69 5.19L238.69 5.19Q239.34 4.82 240.03 4.82L240.03 4.82L240.03 4.82Q240.25 4.82 240.45 4.85L240.45 4.85L240.45 4.85Q240.65 4.89 240.87 4.98ZM259.29 10.72L259.29 10.72L259.29 10.72Q259.66 10.72 259.87 10.98L259.87 10.98L259.87 10.98Q260.08 11.23 260.08 11.68L260.08 11.68L260.08 11.68Q260.08 11.79 260.06 11.91L260.06 11.91L260.06 11.91Q260.05 12.03 260.02 12.11L260.02 12.11L260.02 12.11Q259.73 12.04 259.38 12.03L259.38 12.03L259.38 12.03Q259.29 12.64 258.93 13.32L258.93 13.32L258.93 13.32Q258.57 14 258.05 14.60L258.05 14.60L258.05 14.60Q257.53 15.19 256.91 15.64L256.91 15.64L256.91 15.64Q256.30 16.09 255.70 16.24L255.70 16.24L255.70 16.24Q253.82 16.20 252.96 15.27L252.96 15.27L252.96 15.27Q252.10 14.34 252.10 12.36L252.10 12.36L252.10 12.36Q252.10 10.92 252.63 9.57L252.63 9.57L252.63 9.57Q253.16 8.22 254.04 7.17L254.04 7.17L254.04 7.17Q254.93 6.12 256.07 5.48L256.07 5.48L256.07 5.48Q257.21 4.84 258.44 4.84L258.44 4.84L258.44 4.84Q259.41 4.84 259.95 5.25L259.95 5.25L259.95 5.25Q260.48 5.66 260.48 6.40L260.48 6.40L260.48 6.40Q260.48 6.89 260.25 7.31L260.25 7.31L260.25 7.31Q260.02 7.73 259.49 8.22L259.49 8.22L259.49 8.22Q259.17 8.12 258.93 7.88L258.93 7.88L258.93 7.88Q258.69 7.63 258.64 7.31L258.64 7.31L258.64 7.31Q259.11 6.96 259.31 6.66L259.31 6.66L259.31 6.66Q259.50 6.37 259.50 5.96L259.50 5.96L259.50 5.96Q259.50 5.32 258.73 5.32L258.73 5.32L258.73 5.32Q258.10 5.32 257.38 5.79L257.38 5.79L257.38 5.79Q256.66 6.26 255.93 7.14L255.93 7.14L255.93 7.14Q254.90 8.39 254.42 9.71L254.42 9.71L254.42 9.71Q253.95 11.03 253.95 12.68L253.95 12.68L253.95 12.68Q253.95 13.30 254.07 13.80L254.07 13.80L254.07 13.80Q254.20 14.31 254.41 14.69L254.41 14.69L254.41 14.69Q254.62 15.06 254.91 15.29L254.91 15.29L254.91 15.29Q255.19 15.51 255.53 15.54L255.53 15.54L255.53 15.54Q255.98 15.44 256.42 15.09L256.42 15.09L256.42 15.09Q256.87 14.73 257.24 14.25L257.24 14.25L257.24 14.25Q257.61 13.76 257.87 13.21L257.87 13.21L257.87 13.21Q258.13 12.66 258.19 12.15L258.19 12.15L258.19 12.15Q257.80 12.24 257.44 12.31L257.44 12.31L257.44 12.31Q257.08 12.39 256.76 12.39L256.76 12.39L256.76 12.39Q256.34 12.39 256.03 12.18L256.03 12.18L256.03 12.18Q255.71 11.97 255.60 11.61L255.60 11.61L255.60 11.61Q255.85 11.47 256.33 11.31L256.33 11.31L256.33 11.31Q256.82 11.16 257.36 11.03L257.36 11.03L257.36 11.03Q257.91 10.89 258.43 10.81L258.43 10.81L258.43 10.81Q258.96 10.72 259.29 10.72ZM277.16 7.46L277.16 7.46L277.16 7.46Q277.16 8.13 276.86 8.73L276.86 8.73L276.86 8.73Q276.56 9.32 276.02 9.79L276.02 9.79L276.02 9.79Q275.49 10.26 274.78 10.58L274.78 10.58L274.78 10.58Q274.06 10.91 273.22 11.02L273.22 11.02L273.22 11.02Q273.43 11.65 273.74 12.31L273.74 12.31L273.74 12.31Q274.04 12.98 274.39 13.59L274.39 13.59L274.39 13.59Q274.74 14.21 275.11 14.73L275.11 14.73L275.11 14.73Q275.49 15.25 275.86 15.58L275.86 15.58L275.86 15.58Q275.79 15.72 275.65 15.86L275.65 15.86L275.65 15.86Q275.52 16.00 275.35 16.12L275.35 16.12L275.35 16.12Q275.17 16.24 274.98 16.32L274.98 16.32L274.98 16.32Q274.79 16.39 274.62 16.39L274.62 16.39L274.62 16.39Q274.32 16.39 274.04 16.10L274.04 16.10L274.04 16.10Q273.76 15.81 273.47 15.17L273.47 15.17L273.47 15.17Q273.18 14.53 272.87 13.52L272.87 13.52L272.87 13.52Q272.55 12.50 272.17 11.07L272.17 11.07L272.17 11.07Q272.02 11.07 271.87 11.07L271.87 11.07L271.87 11.07Q271.71 11.07 271.63 11.05L271.63 11.05L271.63 11.05Q271.53 10.99 271.42 10.85L271.42 10.85L271.42 10.85Q271.04 11.66 270.75 12.38L270.75 12.38L270.75 12.38Q270.45 13.09 270.22 13.76L270.22 13.76L270.22 13.76Q269.99 14.42 269.82 15.04L269.82 15.04L269.82 15.04Q269.64 15.67 269.51 16.31L269.51 16.31L269.51 16.31Q269.04 16.20 268.69 15.90L268.69 15.90L268.69 15.90Q268.34 15.61 268.03 15.08L268.03 15.08L268.03 15.08Q268.09 14.95 268.15 14.83L268.15 14.83L268.15 14.83Q268.21 14.71 268.31 14.50L268.31 14.50L268.31 14.50Q268.41 14.28 268.56 13.94L268.56 13.94L268.56 13.94Q268.70 13.61 268.95 13.05L268.95 13.05L268.95 13.05Q269.19 12.49 269.54 11.68L269.54 11.68L269.54 11.68Q269.88 10.86 270.37 9.70L270.37 9.70L270.37 9.70Q270.59 9.18 270.75 8.79L270.75 8.79L270.75 8.79Q270.91 8.40 271.04 8.04L271.04 8.04L271.04 8.04Q271.17 7.69 271.27 7.33L271.27 7.33L271.27 7.33Q271.38 6.97 271.49 6.51L271.49 6.51L271.49 6.51Q270.84 6.73 270.29 7.01L270.29 7.01L270.29 7.01Q269.74 7.28 269.37 7.59L269.37 7.59L269.37 7.59Q269.25 7.50 269.12 7.34L269.12 7.34L269.12 7.34Q268.98 7.17 268.87 6.96L268.87 6.96L268.87 6.96Q268.76 6.76 268.67 6.55L268.67 6.55L268.67 6.55Q268.59 6.34 268.58 6.17L268.58 6.17L268.58 6.17Q269.00 5.89 269.61 5.66L269.61 5.66L269.61 5.66Q270.21 5.42 270.90 5.24L270.90 5.24L270.90 5.24Q271.59 5.07 272.30 4.97L272.30 4.97L272.30 4.97Q273.01 4.87 273.63 4.87L273.63 4.87L273.63 4.87Q275.31 4.87 276.23 5.56L276.23 5.56L276.23 5.56Q277.16 6.26 277.16 7.46ZM273.57 6.02L273.74 6.29L273.74 6.29Q273.64 6.41 273.43 6.79L273.43 6.79L273.43 6.79Q273.22 7.17 272.95 7.69L272.95 7.69L272.95 7.69Q272.68 8.22 272.38 8.83L272.38 8.83L272.38 8.83Q272.08 9.45 271.80 10.05L271.80 10.05L271.80 10.05Q272.85 10.05 273.73 9.86L273.73 9.86L273.73 9.86Q274.61 9.66 275.25 9.30L275.25 9.30L275.25 9.30Q275.90 8.95 276.26 8.46L276.26 8.46L276.26 8.46Q276.61 7.98 276.61 7.39L276.61 7.39L276.61 7.39Q276.61 6.69 276.11 6.32L276.11 6.32L276.11 6.32Q275.60 5.95 274.55 5.95L274.55 5.95L274.55 5.95Q274.32 5.95 274.08 5.97L274.08 5.97L274.08 5.97Q273.84 5.99 273.57 6.02L273.57 6.02ZM284.94 16.24L284.94 16.24L284.94 16.24Q284.27 16.04 284.01 15.85L284.01 15.85L284.01 15.85Q283.75 15.65 283.75 15.36L283.75 15.36L283.75 15.36Q283.75 15.13 283.88 14.73L283.88 14.73L283.88 14.73Q284.00 14.32 284.25 13.77L284.25 13.77L284.25 13.77Q284.49 13.22 284.84 12.54L284.84 12.54L284.84 12.54Q285.18 11.87 285.61 11.10L285.61 11.10L285.61 11.10Q285.25 11.09 284.96 11.08L284.96 11.08L284.96 11.08Q284.68 11.07 284.49 11.07L284.49 11.07L284.49 11.07Q284.58 10.86 284.97 10.71L284.97 10.71L284.97 10.71Q285.36 10.56 286.01 10.44L286.01 10.44L286.01 10.44Q286.55 9.53 287.18 8.71L287.18 8.71L287.18 8.71Q287.80 7.88 288.43 7.19L288.43 7.19L288.43 7.19Q289.06 6.50 289.69 5.97L289.69 5.97L289.69 5.97Q290.32 5.45 290.89 5.14L290.89 5.14L290.89 5.14Q290.91 5.04 290.91 4.97L290.91 4.97L290.91 4.97Q290.92 4.90 290.92 4.87L290.92 4.87L290.92 4.87Q291.12 4.87 291.45 4.97L291.45 4.97L291.45 4.97Q291.77 5.07 292.09 5.21L292.09 5.21L292.09 5.21Q292.40 5.35 292.65 5.49L292.65 5.49L292.65 5.49Q292.89 5.64 292.92 5.74L292.92 5.74L292.92 5.74Q292.46 6.55 292.01 8.17L292.01 8.17L292.01 8.17Q291.56 9.79 291.27 12.04L291.27 12.04L291.27 12.04Q291.20 12.60 291.15 13.31L291.15 13.31L291.15 13.31Q291.10 14.03 291.10 14.91L291.10 14.91L291.10 14.91Q291.10 15.22 291.10 15.54L291.10 15.54L291.10 15.54Q291.10 15.86 291.13 16.21L291.13 16.21L291.13 16.21Q291.10 16.23 291.07 16.23L291.07 16.23L291.07 16.23Q291.05 16.23 290.96 16.23L290.96 16.23L290.96 16.23Q290.77 16.23 290.51 16.16L290.51 16.16L290.51 16.16Q290.25 16.10 290.00 16.01L290.00 16.01L290.00 16.01Q289.76 15.92 289.58 15.81L289.58 15.81L289.58 15.81Q289.41 15.69 289.37 15.61L289.37 15.61L289.37 15.61Q289.35 15.43 289.35 15.25L289.35 15.25L289.35 15.25Q289.35 15.08 289.35 14.88L289.35 14.88L289.35 14.88Q289.35 14.01 289.42 13.12L289.42 13.12L289.42 13.12Q289.48 12.22 289.63 11.27L289.63 11.27L289.63 11.27Q289.44 11.26 289.11 11.23L289.11 11.23L289.11 11.23Q288.79 11.21 288.39 11.20L288.39 11.20L288.39 11.20Q287.99 11.19 287.54 11.16L287.54 11.16L287.54 11.16Q287.08 11.14 286.65 11.13L286.65 11.13L286.65 11.13Q286.31 11.76 286.02 12.38L286.02 12.38L286.02 12.38Q285.73 13.01 285.52 13.64L285.52 13.64L285.52 13.64Q285.28 14.31 285.13 14.98L285.13 14.98L285.13 14.98Q284.98 15.65 284.94 16.24ZM290.35 7.83L290.35 7.83L290.35 7.83Q290.40 7.63 290.48 7.29L290.48 7.29L290.48 7.29Q290.56 6.94 290.63 6.57L290.63 6.57L290.63 6.57Q290.28 6.69 289.85 7.03L289.85 7.03L289.85 7.03Q289.42 7.36 288.97 7.86L288.97 7.86L288.97 7.86Q288.51 8.36 288.04 8.98L288.04 8.98L288.04 8.98Q287.57 9.60 287.14 10.30L287.14 10.30L287.14 10.30Q288.32 10.21 289.81 10.18L289.81 10.18L289.81 10.18Q289.93 9.59 290.06 9.01L290.06 9.01L290.06 9.01Q290.19 8.43 290.35 7.83ZM309.83 7.63L309.83 7.63L309.83 7.63Q309.83 8.40 309.45 9.10L309.45 9.10L309.45 9.10Q309.06 9.80 308.41 10.32L308.41 10.32L308.41 10.32Q307.76 10.85 306.89 11.16L306.89 11.16L306.89 11.16Q306.01 11.47 305.03 11.47L305.03 11.47L305.03 11.47Q304.68 11.47 304.48 11.38L304.48 11.38L304.48 11.38Q304.28 11.28 304.02 11.02L304.02 11.02L304.02 11.02Q303.32 12.54 302.88 13.82L302.88 13.82L302.88 13.82Q302.44 15.11 302.19 16.31L302.19 16.31L302.19 16.31Q301.66 16.18 301.32 15.87L301.32 15.87L301.32 15.87Q300.99 15.55 300.71 15.08L300.71 15.08L300.71 15.08Q300.85 14.81 301.04 14.38L301.04 14.38L301.04 14.38Q301.24 13.94 301.52 13.31L301.52 13.31L301.52 13.31Q301.80 12.67 302.17 11.78L302.17 11.78L302.17 11.78Q302.54 10.89 303.04 9.70L303.04 9.70L303.04 9.70Q303.27 9.16 303.44 8.75L303.44 8.75L303.44 8.75Q303.60 8.34 303.73 7.99L303.73 7.99L303.73 7.99Q303.86 7.63 303.96 7.28L303.96 7.28L303.96 7.28Q304.07 6.93 304.18 6.51L304.18 6.51L304.18 6.51Q303.52 6.72 302.97 7L302.97 7L302.97 7Q302.41 7.28 302.05 7.59L302.05 7.59L302.05 7.59Q301.92 7.50 301.79 7.34L301.79 7.34L301.79 7.34Q301.66 7.17 301.55 6.96L301.55 6.96L301.55 6.96Q301.43 6.76 301.35 6.55L301.35 6.55L301.35 6.55Q301.27 6.34 301.25 6.17L301.25 6.17L301.25 6.17Q301.66 5.89 302.26 5.66L302.26 5.66L302.26 5.66Q302.86 5.42 303.55 5.24L303.55 5.24L303.55 5.24Q304.23 5.07 304.97 4.97L304.97 4.97L304.97 4.97Q305.70 4.87 306.38 4.87L306.38 4.87L306.38 4.87Q307.17 4.87 307.82 5.07L307.82 5.07L307.82 5.07Q308.46 5.28 308.91 5.64L308.91 5.64L308.91 5.64Q309.36 6.01 309.60 6.51L309.60 6.51L309.60 6.51Q309.83 7.01 309.83 7.63ZM307.34 5.95L307.34 5.95L307.34 5.95Q306.81 5.95 306.25 6.03L306.25 6.03L306.42 6.29L306.42 6.29Q306.28 6.47 306.07 6.83L306.07 6.83L306.07 6.83Q305.86 7.20 305.61 7.71L305.61 7.71L305.61 7.71Q305.35 8.22 305.05 8.85L305.05 8.85L305.05 8.85Q304.75 9.48 304.42 10.18L304.42 10.18L304.42 10.18Q305.51 10.18 306.40 9.97L306.40 9.97L306.40 9.97Q307.30 9.77 307.94 9.41L307.94 9.41L307.94 9.41Q308.57 9.06 308.93 8.58L308.93 8.58L308.93 8.58Q309.29 8.11 309.29 7.56L309.29 7.56L309.29 7.56Q309.29 6.83 308.80 6.39L308.80 6.39L308.80 6.39Q308.31 5.95 307.34 5.95ZM321.75 14.36L321.75 14.36L321.75 14.36Q321.75 13.78 321.94 12.85L321.94 12.85L321.94 12.85Q322.14 11.93 322.46 10.88L322.46 10.88L322.46 10.88Q321.54 10.95 320.61 11.06L320.61 11.06L320.61 11.06Q319.68 11.17 318.99 11.19L318.99 11.19L318.99 11.19Q318.36 12.66 317.99 13.89L317.99 13.89L317.99 13.89Q317.62 15.13 317.41 16.31L317.41 16.31L317.41 16.31Q316.88 16.18 316.53 15.87L316.53 15.87L316.53 15.87Q316.18 15.55 315.88 15.08L315.88 15.08L315.88 15.08Q315.99 14.85 316.14 14.50L316.14 14.50L316.14 14.50Q316.29 14.15 316.49 13.66L316.49 13.66L316.49 13.66Q316.69 13.16 316.95 12.50L316.95 12.50L316.95 12.50Q317.21 11.83 317.55 10.95L317.55 10.95L317.55 10.95Q317.09 10.75 316.93 10.40L316.93 10.40L316.93 10.40Q317.00 10.35 317.25 10.28L317.25 10.28L317.25 10.28Q317.49 10.22 317.86 10.15L317.86 10.15L318.04 9.70L318.04 9.70Q318.33 8.95 318.52 8.43L318.52 8.43L318.52 8.43Q318.71 7.91 318.84 7.41L318.84 7.41L318.84 7.41Q318.98 6.92 319.10 6.31L319.10 6.31L319.10 6.31Q319.21 5.71 319.38 4.79L319.38 4.79L319.38 4.79Q319.97 4.90 320.45 5.31L320.45 5.31L320.45 5.31Q320.94 5.71 321.29 6.29L321.29 6.29L321.29 6.29Q321.16 6.45 320.98 6.79L320.98 6.79L320.98 6.79Q320.80 7.13 320.58 7.59L320.58 7.59L320.58 7.59Q320.36 8.06 320.11 8.64L320.11 8.64L320.11 8.64Q319.86 9.23 319.56 9.87L319.56 9.87L319.56 9.87Q320.43 9.76 321.32 9.66L321.32 9.66L321.32 9.66Q322.21 9.56 322.90 9.52L322.90 9.52L322.90 9.52Q323.15 8.79 323.42 8.10L323.42 8.10L323.42 8.10Q323.69 7.41 323.96 6.83L323.96 6.83L323.96 6.83Q324.23 6.26 324.47 5.82L324.47 5.82L324.47 5.82Q324.72 5.39 324.91 5.18L324.91 5.18L324.91 5.18Q325.05 5.19 325.28 5.29L325.28 5.29L325.28 5.29Q325.51 5.38 325.75 5.50L325.75 5.50L325.75 5.50Q325.99 5.63 326.19 5.78L326.19 5.78L326.19 5.78Q326.38 5.92 326.45 6.05L326.45 6.05L326.45 6.05Q326.20 6.29 325.95 6.66L325.95 6.66L325.95 6.66Q325.70 7.04 325.45 7.53L325.45 7.53L325.45 7.53Q325.21 8.02 324.97 8.60L324.97 8.60L324.97 8.60Q324.73 9.17 324.52 9.79L324.52 9.79L324.52 9.79Q324.80 10.04 324.80 10.42L324.80 10.42L324.80 10.42Q324.80 10.68 324.69 10.91L324.69 10.91L324.69 10.91Q324.56 10.88 324.44 10.87L324.44 10.87L324.44 10.87Q324.31 10.86 324.17 10.85L324.17 10.85L324.17 10.85Q323.93 11.61 323.74 12.35L323.74 12.35L323.74 12.35Q323.54 13.09 323.41 13.76L323.41 13.76L323.41 13.76Q323.27 14.43 323.20 14.99L323.20 14.99L323.20 14.99Q323.12 15.55 323.12 15.93L323.12 15.93L323.12 15.93Q323.12 16.07 323.13 16.16L323.13 16.16L323.13 16.16Q323.13 16.24 323.15 16.30L323.15 16.30L323.15 16.30Q322.84 16.28 322.70 16.19L322.70 16.19L322.70 16.19Q322.56 16.10 322.49 16.00L322.49 16.00L322.49 16.00Q322.42 15.89 322.36 15.79L322.36 15.79L322.36 15.79Q322.31 15.68 322.18 15.62L322.18 15.62L322.18 15.62Q322.08 15.58 322 15.43L322 15.43L322 15.43Q321.92 15.27 321.86 15.08L321.86 15.08L321.86 15.08Q321.80 14.88 321.78 14.69L321.78 14.69L321.78 14.69Q321.75 14.49 321.75 14.36ZM333.16 14.38L333.16 14.38L333.16 14.38Q333.16 13.87 333.32 13.07L333.32 13.07L333.32 13.07Q333.48 12.26 333.74 11.33L333.74 11.33L333.74 11.33Q334.00 10.40 334.33 9.43L334.33 9.43L334.33 9.43Q334.67 8.46 335.02 7.60L335.02 7.60L335.02 7.60Q335.37 6.75 335.71 6.10L335.71 6.10L335.71 6.10Q336.04 5.46 336.31 5.18L336.31 5.18L336.31 5.18Q336.45 5.19 336.68 5.29L336.68 5.29L336.68 5.29Q336.91 5.38 337.15 5.50L337.15 5.50L337.15 5.50Q337.39 5.63 337.58 5.78L337.58 5.78L337.58 5.78Q337.78 5.92 337.83 6.05L337.83 6.05L337.83 6.05Q337.43 6.41 337.03 7.15L337.03 7.15L337.03 7.15Q336.63 7.88 336.26 8.82L336.26 8.82L336.26 8.82Q335.89 9.76 335.57 10.80L335.57 10.80L335.57 10.80Q335.24 11.84 335.01 12.82L335.01 12.82L335.01 12.82Q334.77 13.80 334.63 14.64L334.63 14.64L334.63 14.64Q334.50 15.48 334.50 16.00L334.50 16.00L334.50 16.00Q334.50 16.24 334.54 16.30L334.54 16.30L334.54 16.30Q334.24 16.28 334.10 16.19L334.10 16.19L334.10 16.19Q333.96 16.10 333.88 16.00L333.88 16.00L333.88 16.00Q333.80 15.89 333.74 15.79L333.74 15.79L333.74 15.79Q333.68 15.68 333.55 15.62L333.55 15.62L333.55 15.62Q333.45 15.58 333.38 15.43L333.38 15.43L333.38 15.43Q333.31 15.27 333.26 15.09L333.26 15.09L333.26 15.09Q333.21 14.90 333.19 14.70L333.19 14.70L333.19 14.70Q333.16 14.50 333.16 14.38ZM344.72 12.43L344.72 12.43L344.72 12.43Q344.72 11.45 344.95 10.51L344.95 10.51L344.95 10.51Q345.18 9.56 345.60 8.71L345.60 8.71L345.60 8.71Q346.02 7.87 346.61 7.16L346.61 7.16L346.61 7.16Q347.19 6.45 347.88 5.94L347.88 5.94L347.88 5.94Q348.57 5.42 349.36 5.13L349.36 5.13L349.36 5.13Q350.14 4.84 350.97 4.84L350.97 4.84L350.97 4.84Q351.93 4.84 352.47 5.25L352.47 5.25L352.47 5.25Q353.01 5.66 353.01 6.38L353.01 6.38L353.01 6.38Q353.01 6.66 352.93 6.96L352.93 6.96L352.93 6.96Q352.86 7.25 352.71 7.54L352.71 7.54L352.71 7.54Q352.56 7.83 352.37 8.09L352.37 8.09L352.37 8.09Q352.17 8.36 351.93 8.55L351.93 8.55L351.93 8.55Q351.57 8.50 351.30 8.22L351.30 8.22L351.30 8.22Q351.04 7.95 350.97 7.59L350.97 7.59L350.97 7.59Q351.46 7.18 351.74 6.74L351.74 6.74L351.74 6.74Q352.03 6.30 352.03 5.94L352.03 5.94L352.03 5.94Q352.03 5.32 351.26 5.32L351.26 5.32L351.26 5.32Q350.94 5.32 350.60 5.45L350.60 5.45L350.60 5.45Q350.25 5.59 349.90 5.82L349.90 5.82L349.90 5.82Q349.55 6.06 349.22 6.40L349.22 6.40L349.22 6.40Q348.89 6.73 348.61 7.14L348.61 7.14L348.61 7.14Q346.67 9.94 346.67 12.87L346.67 12.87L346.67 12.87Q346.67 13.90 346.99 14.53L346.99 14.53L346.99 14.53Q347.31 15.16 347.84 15.27L347.84 15.27L347.84 15.27Q348.45 15.13 349.37 14.50L349.37 14.50L349.37 14.50Q350.29 13.87 351.39 12.87L351.39 12.87L351.39 12.87Q351.53 13.01 351.55 13.16L351.55 13.16L351.55 13.16Q351.15 13.69 350.71 14.18L350.71 14.18L350.71 14.18Q350.28 14.67 349.85 15.08L349.85 15.08L349.85 15.08Q349.43 15.48 349.01 15.79L349.01 15.79L349.01 15.79Q348.60 16.10 348.25 16.27L348.25 16.27L348.25 16.27Q346.51 16.24 345.62 15.27L345.62 15.27L345.62 15.27Q344.72 14.31 344.72 12.43ZM379.06 5.74L379.06 5.74L379.06 5.74Q379.11 5.98 379.13 6.07L379.13 6.07L379.13 6.07Q379.15 6.16 379.15 6.31L379.15 6.31L379.15 6.31Q379.15 6.78 378.95 7.18L378.95 7.18L378.95 7.18Q378.74 7.57 378.39 7.74L378.39 7.74L378.39 7.74Q378.11 7.36 377.71 7.09L377.71 7.09L377.71 7.09Q377.30 6.82 376.82 6.64L376.82 6.64L376.82 6.64Q376.33 6.47 375.82 6.38L375.82 6.38L375.82 6.38Q375.30 6.30 374.81 6.30L374.81 6.30L374.81 6.30Q374.32 6.30 373.89 6.38L373.89 6.38L373.89 6.38Q373.46 6.45 373.14 6.59L373.14 6.59L373.14 6.59Q372.81 6.72 372.62 6.92L372.62 6.92L372.62 6.92Q372.43 7.11 372.43 7.36L372.43 7.36L372.43 7.36Q372.47 7.67 372.81 7.99L372.81 7.99L372.81 7.99Q373.14 8.30 373.63 8.60L373.63 8.60L373.63 8.60Q374.12 8.90 374.72 9.20L374.72 9.20L374.72 9.20Q375.31 9.49 375.89 9.76L375.89 9.76L375.89 9.76Q376.60 10.09 377.12 10.38L377.12 10.38L377.12 10.38Q377.64 10.67 377.97 11.01L377.97 11.01L377.97 11.01Q378.31 11.35 378.48 11.79L378.48 11.79L378.48 11.79Q378.64 12.22 378.64 12.84L378.64 12.84L378.64 12.84Q378.64 13.55 378.41 14.18L378.41 14.18L378.41 14.18Q378.17 14.80 377.71 15.26L377.71 15.26L377.71 15.26Q377.26 15.72 376.61 15.98L376.61 15.98L376.61 15.98Q375.97 16.24 375.17 16.24L375.17 16.24L375.17 16.24Q374.39 16.24 373.48 16.00L373.48 16.00L373.48 16.00Q372.57 15.76 371.78 15.35L371.78 15.35L371.78 15.35Q370.99 14.94 370.46 14.40L370.46 14.40L370.46 14.40Q369.94 13.86 369.94 13.26L369.94 13.26L369.94 13.26Q369.94 12.98 370.10 12.54L370.10 12.54L370.10 12.54Q370.26 12.11 370.68 11.63L370.68 11.63L370.68 11.63Q370.72 12.05 371.13 12.63L371.13 12.63L371.13 12.63Q371.55 13.20 372.37 13.69L372.37 13.69L372.37 13.69Q373.14 14.14 373.96 14.34L373.96 14.34L373.96 14.34Q374.78 14.55 375.49 14.55L375.49 14.55L375.49 14.55Q376.28 14.55 376.77 14.35L376.77 14.35L376.77 14.35Q377.26 14.15 377.54 13.88L377.54 13.88L377.54 13.88Q377.82 13.61 377.93 13.33L377.93 13.33L377.93 13.33Q378.04 13.05 378.06 12.88L378.06 12.88L378.06 12.88Q378.04 12.60 377.80 12.34L377.80 12.34L377.80 12.34Q377.55 12.08 377.14 11.84L377.14 11.84L377.14 11.84Q376.73 11.59 376.18 11.34L376.18 11.34L376.18 11.34Q375.63 11.09 375.05 10.84L375.05 10.84L375.05 10.84Q374.16 10.44 373.53 10.10L373.53 10.10L373.53 10.10Q372.89 9.76 372.48 9.40L372.48 9.40L372.48 9.40Q372.06 9.04 371.88 8.65L371.88 8.65L371.88 8.65Q371.69 8.26 371.69 7.76L371.69 7.76L371.69 7.76Q371.69 6.97 372.16 6.27L372.16 6.27L372.16 6.27Q372.64 5.57 373.53 5.21L373.53 5.21L373.53 5.21Q373.98 5.01 374.49 4.93L374.49 4.93L374.49 4.93Q375.00 4.84 375.49 4.84L375.49 4.84L375.49 4.84Q376.42 4.84 377.30 5.10L377.30 5.10L377.30 5.10Q378.18 5.35 379.06 5.74ZM387.27 12.43L387.27 12.43L387.27 12.43Q387.27 11.45 387.50 10.51L387.50 10.51L387.50 10.51Q387.73 9.56 388.15 8.71L388.15 8.71L388.15 8.71Q388.57 7.87 389.15 7.16L389.15 7.16L389.15 7.16Q389.73 6.45 390.43 5.94L390.43 5.94L390.43 5.94Q391.12 5.42 391.90 5.13L391.90 5.13L391.90 5.13Q392.69 4.84 393.51 4.84L393.51 4.84L393.51 4.84Q394.48 4.84 395.02 5.25L395.02 5.25L395.02 5.25Q395.56 5.66 395.56 6.38L395.56 6.38L395.56 6.38Q395.56 6.66 395.48 6.96L395.48 6.96L395.48 6.96Q395.40 7.25 395.26 7.54L395.26 7.54L395.26 7.54Q395.11 7.83 394.91 8.09L394.91 8.09L394.91 8.09Q394.72 8.36 394.48 8.55L394.48 8.55L394.48 8.55Q394.11 8.50 393.85 8.22L393.85 8.22L393.85 8.22Q393.58 7.95 393.51 7.59L393.51 7.59L393.51 7.59Q394.00 7.18 394.29 6.74L394.29 6.74L394.29 6.74Q394.58 6.30 394.58 5.94L394.58 5.94L394.58 5.94Q394.58 5.32 393.81 5.32L393.81 5.32L393.81 5.32Q393.48 5.32 393.14 5.45L393.14 5.45L393.14 5.45Q392.80 5.59 392.45 5.82L392.45 5.82L392.45 5.82Q392.10 6.06 391.77 6.40L391.77 6.40L391.77 6.40Q391.44 6.73 391.16 7.14L391.16 7.14L391.16 7.14Q389.21 9.94 389.21 12.87L389.21 12.87L389.21 12.87Q389.21 13.90 389.54 14.53L389.54 14.53L389.54 14.53Q389.86 15.16 390.39 15.27L390.39 15.27L390.39 15.27Q390.99 15.13 391.92 14.50L391.92 14.50L391.92 14.50Q392.84 13.87 393.93 12.87L393.93 12.87L393.93 12.87Q394.07 13.01 394.10 13.16L394.10 13.16L394.10 13.16Q393.69 13.69 393.26 14.18L393.26 14.18L393.26 14.18Q392.83 14.67 392.40 15.08L392.40 15.08L392.40 15.08Q391.97 15.48 391.56 15.79L391.56 15.79L391.56 15.79Q391.15 16.10 390.80 16.27L390.80 16.27L390.80 16.27Q389.06 16.24 388.16 15.27L388.16 15.27L388.16 15.27Q387.27 14.31 387.27 12.43ZM402.57 14.38L402.57 14.38L402.57 14.38Q402.57 13.87 402.73 13.07L402.73 13.07L402.73 13.07Q402.89 12.26 403.15 11.33L403.15 11.33L403.15 11.33Q403.41 10.40 403.75 9.43L403.75 9.43L403.75 9.43Q404.08 8.46 404.43 7.60L404.43 7.60L404.43 7.60Q404.78 6.75 405.12 6.10L405.12 6.10L405.12 6.10Q405.45 5.46 405.72 5.18L405.72 5.18L405.72 5.18Q405.86 5.19 406.09 5.29L406.09 5.29L406.09 5.29Q406.32 5.38 406.56 5.50L406.56 5.50L406.56 5.50Q406.80 5.63 406.99 5.78L406.99 5.78L406.99 5.78Q407.19 5.92 407.25 6.05L407.25 6.05L407.25 6.05Q406.84 6.41 406.44 7.15L406.44 7.15L406.44 7.15Q406.04 7.88 405.67 8.82L405.67 8.82L405.67 8.82Q405.30 9.76 404.98 10.80L404.98 10.80L404.98 10.80Q404.66 11.84 404.42 12.82L404.42 12.82L404.42 12.82Q404.18 13.80 404.05 14.64L404.05 14.64L404.05 14.64Q403.91 15.48 403.91 16.00L403.91 16.00L403.91 16.00Q403.91 16.24 403.96 16.30L403.96 16.30L403.96 16.30Q403.65 16.28 403.51 16.19L403.51 16.19L403.51 16.19Q403.37 16.10 403.29 16.00L403.29 16.00L403.29 16.00Q403.21 15.89 403.15 15.79L403.15 15.79L403.15 15.79Q403.09 15.68 402.96 15.62L402.96 15.62L402.96 15.62Q402.86 15.58 402.79 15.43L402.79 15.43L402.79 15.43Q402.72 15.27 402.68 15.09L402.68 15.09L402.68 15.09Q402.63 14.90 402.60 14.70L402.60 14.70L402.60 14.70Q402.57 14.50 402.57 14.38ZM419.34 9.21L419.34 9.21L419.34 9.21Q419.80 9.21 420.06 9.46L420.06 9.46L420.06 9.46Q420.32 9.72 420.32 10.16L420.32 10.16L420.32 10.16Q420.32 10.28 420.30 10.39L420.30 10.39L420.30 10.39Q420.28 10.51 420.25 10.60L420.25 10.60L420.25 10.60Q420.07 10.57 419.85 10.55L419.85 10.55L419.85 10.55Q419.62 10.53 419.31 10.53L419.31 10.53L419.31 10.53Q418.71 10.53 418.10 10.63L418.10 10.63L418.10 10.63Q417.48 10.74 416.92 10.81L416.92 10.81L416.92 10.81Q416.60 11.55 416.33 12.24L416.33 12.24L416.33 12.24Q416.07 12.94 415.88 13.51L415.88 13.51L415.88 13.51Q415.69 14.08 415.58 14.50L415.58 14.50L415.58 14.50Q415.48 14.92 415.46 15.13L415.46 15.13L415.46 15.13Q416.60 14.90 417.75 14.73L417.75 14.73L417.75 14.73Q418.91 14.56 420.18 14.48L420.18 14.48L420.18 14.48Q420.34 14.71 420.44 14.99L420.44 14.99L420.44 14.99Q420.55 15.27 420.55 15.60L420.55 15.60L420.55 15.60Q420.55 15.68 420.55 15.78L420.55 15.78L420.55 15.78Q420.55 15.88 420.52 15.97L420.52 15.97L420.52 15.97Q420.13 15.96 419.69 15.95L419.69 15.95L419.69 15.95Q419.26 15.95 418.56 15.95L418.56 15.95L418.56 15.95Q418.10 15.95 417.68 15.97L417.68 15.97L417.68 15.97Q417.27 15.99 416.85 16.03L416.85 16.03L416.85 16.03Q416.43 16.07 415.96 16.14L415.96 16.14L415.96 16.14Q415.49 16.21 414.90 16.31L414.90 16.31L414.90 16.31Q414.26 16.06 413.66 15.08L413.66 15.08L413.66 15.08Q413.90 14.57 414.32 13.54L414.32 13.54L414.32 13.54Q414.75 12.52 415.41 10.79L415.41 10.79L415.41 10.79Q414.78 10.60 414.58 10.09L414.58 10.09L414.58 10.09Q414.65 10.02 414.99 9.92L414.99 9.92L414.99 9.92Q415.32 9.81 415.81 9.70L415.81 9.70L415.81 9.70Q416.02 9.16 416.17 8.75L416.17 8.75L416.17 8.75Q416.32 8.34 416.43 7.99L416.43 7.99L416.43 7.99Q416.54 7.63 416.63 7.29L416.63 7.29L416.63 7.29Q416.72 6.94 416.81 6.54L416.81 6.54L416.81 6.54Q416.32 6.51 416.04 6.27L416.04 6.27L416.04 6.27Q415.76 6.02 415.76 5.63L415.76 5.63L415.76 5.63Q415.76 5.52 415.79 5.36L415.79 5.36L415.79 5.36Q415.83 5.21 415.87 5.10L415.87 5.10L415.87 5.10Q416.15 5.14 416.41 5.15L416.41 5.15L416.41 5.15Q416.67 5.17 417.09 5.17L417.09 5.17L417.09 5.17Q417.97 5.17 418.74 5.12L418.74 5.12L418.74 5.12Q419.51 5.07 420.13 5.01L420.13 5.01L420.13 5.01Q420.76 4.96 421.20 4.91L421.20 4.91L421.20 4.91Q421.65 4.86 421.89 4.86L421.89 4.86L421.89 4.86Q422.21 4.86 422.46 5.19L422.46 5.19L422.46 5.19Q422.72 5.53 422.84 6.15L422.84 6.15L422.84 6.15Q422.41 6.10 422.14 6.09L422.14 6.09L422.14 6.09Q421.86 6.08 421.65 6.08L421.65 6.08L421.65 6.08Q420.88 6.08 420.25 6.15L420.25 6.15L420.25 6.15Q419.61 6.23 419.02 6.31L419.02 6.31L419.02 6.31Q418.94 6.44 418.83 6.64L418.83 6.64L418.83 6.64Q418.73 6.83 418.56 7.18L418.56 7.18L418.56 7.18Q418.39 7.53 418.15 8.06L418.15 8.06L418.15 8.06Q417.90 8.60 417.55 9.39L417.55 9.39L417.55 9.39Q418.08 9.31 418.55 9.26L418.55 9.26L418.55 9.26Q419.02 9.21 419.34 9.21ZM430.33 16.24L430.33 16.24L430.33 16.24Q429.53 16.00 429.25 15.79L429.25 15.79L429.25 15.79Q428.97 15.57 428.97 15.19L428.97 15.19L428.97 15.19Q428.97 14.77 429.17 14.01L429.17 14.01L429.17 14.01Q429.37 13.24 429.68 12.31L429.68 12.31L429.68 12.31Q430.00 11.37 430.40 10.35L430.40 10.35L430.40 10.35Q430.81 9.32 431.23 8.39L431.23 8.39L431.23 8.39Q431.65 7.45 432.05 6.67L432.05 6.67L432.05 6.67Q432.45 5.89 432.75 5.46L432.75 5.46L432.66 4.87L432.66 4.87Q432.85 4.87 433.20 4.97L433.20 4.97L433.20 4.97Q433.55 5.07 433.91 5.21L433.91 5.21L433.91 5.21Q434.27 5.35 434.54 5.49L434.54 5.49L434.54 5.49Q434.81 5.64 434.84 5.74L434.84 5.74L434.84 5.74Q434.77 6.08 434.73 6.76L434.73 6.76L434.73 6.76Q434.69 7.43 434.69 8.20L434.69 8.20L434.69 8.20Q434.69 9.73 434.81 11.19L434.81 11.19L434.81 11.19Q434.92 12.66 435.36 14.17L435.36 14.17L435.36 14.17Q435.58 13.05 435.84 11.94L435.84 11.94L435.84 11.94Q436.10 10.82 436.38 9.81L436.38 9.81L436.38 9.81Q436.66 8.79 436.94 7.92L436.94 7.92L436.94 7.92Q437.22 7.06 437.48 6.40L437.48 6.40L437.48 6.40Q437.74 5.75 437.96 5.38L437.96 5.38L437.96 5.38Q438.19 5.01 438.37 4.98L438.37 4.98L438.37 4.98Q438.52 5.01 438.70 5.10L438.70 5.10L438.70 5.10Q438.89 5.19 439.05 5.32L439.05 5.32L439.05 5.32Q439.22 5.45 439.36 5.60L439.36 5.60L439.36 5.60Q439.50 5.75 439.59 5.91L439.59 5.91L439.59 5.91Q439.14 6.09 438.70 6.76L438.70 6.76L438.70 6.76Q438.26 7.43 437.86 8.39L437.86 8.39L437.86 8.39Q437.46 9.35 437.12 10.47L437.12 10.47L437.12 10.47Q436.77 11.59 436.51 12.68L436.51 12.68L436.51 12.68Q436.25 13.76 436.11 14.69L436.11 14.69L436.11 14.69Q435.96 15.61 435.95 16.17L435.95 16.17L435.95 16.17Q435.95 16.20 435.96 16.21L435.96 16.21L435.96 16.21Q435.92 16.23 435.87 16.23L435.87 16.23L435.87 16.23Q435.82 16.23 435.78 16.23L435.78 16.23L435.78 16.23Q435.13 16.23 434.64 16.07L434.64 16.07L434.64 16.07Q434.14 15.90 433.99 15.61L433.99 15.61L433.99 15.61Q433.69 14.43 433.50 13.34L433.50 13.34L433.50 13.34Q433.30 12.25 433.17 11.16L433.17 11.16L433.17 11.16Q433.03 10.07 432.96 8.95L432.96 8.95L432.96 8.95Q432.88 7.84 432.84 6.62L432.84 6.62L432.84 6.62Q432.57 7.04 432.28 7.72L432.28 7.72L432.28 7.72Q431.98 8.40 431.70 9.21L431.70 9.21L431.70 9.21Q431.42 10.02 431.17 10.92L431.17 10.92L431.17 10.92Q430.91 11.82 430.71 12.67L430.71 12.67L430.71 12.67Q430.51 13.52 430.40 14.29L430.40 14.29L430.40 14.29Q430.29 15.05 430.29 15.61L430.29 15.61L430.29 15.61Q430.29 15.90 430.30 16.03L430.30 16.03L430.30 16.03Q430.30 16.16 430.33 16.24ZM446.22 12.43L446.22 12.43L446.22 12.43Q446.22 11.45 446.45 10.51L446.45 10.51L446.45 10.51Q446.68 9.56 447.10 8.71L447.10 8.71L447.10 8.71Q447.52 7.87 448.11 7.16L448.11 7.16L448.11 7.16Q448.69 6.45 449.38 5.94L449.38 5.94L449.38 5.94Q450.07 5.42 450.86 5.13L450.86 5.13L450.86 5.13Q451.64 4.84 452.47 4.84L452.47 4.84L452.47 4.84Q453.43 4.84 453.97 5.25L453.97 5.25L453.97 5.25Q454.51 5.66 454.51 6.38L454.51 6.38L454.51 6.38Q454.51 6.66 454.43 6.96L454.43 6.96L454.43 6.96Q454.36 7.25 454.21 7.54L454.21 7.54L454.21 7.54Q454.06 7.83 453.87 8.09L453.87 8.09L453.87 8.09Q453.67 8.36 453.43 8.55L453.43 8.55L453.43 8.55Q453.07 8.50 452.80 8.22L452.80 8.22L452.80 8.22Q452.54 7.95 452.47 7.59L452.47 7.59L452.47 7.59Q452.96 7.18 453.24 6.74L453.24 6.74L453.24 6.74Q453.53 6.30 453.53 5.94L453.53 5.94L453.53 5.94Q453.53 5.32 452.76 5.32L452.76 5.32L452.76 5.32Q452.44 5.32 452.10 5.45L452.10 5.45L452.10 5.45Q451.75 5.59 451.40 5.82L451.40 5.82L451.40 5.82Q451.05 6.06 450.72 6.40L450.72 6.40L450.72 6.40Q450.39 6.73 450.11 7.14L450.11 7.14L450.11 7.14Q448.17 9.94 448.17 12.87L448.17 12.87L448.17 12.87Q448.17 13.90 448.49 14.53L448.49 14.53L448.49 14.53Q448.81 15.16 449.34 15.27L449.34 15.27L449.34 15.27Q449.95 15.13 450.87 14.50L450.87 14.50L450.87 14.50Q451.79 13.87 452.89 12.87L452.89 12.87L452.89 12.87Q453.03 13.01 453.05 13.16L453.05 13.16L453.05 13.16Q452.65 13.69 452.21 14.18L452.21 14.18L452.21 14.18Q451.78 14.67 451.35 15.08L451.35 15.08L451.35 15.08Q450.93 15.48 450.51 15.79L450.51 15.79L450.51 15.79Q450.10 16.10 449.75 16.27L449.75 16.27L449.75 16.27Q448.01 16.24 447.12 15.27L447.12 15.27L447.12 15.27Q446.22 14.31 446.22 12.43ZM466.82 9.21L466.82 9.21L466.82 9.21Q467.28 9.21 467.54 9.46L467.54 9.46L467.54 9.46Q467.80 9.72 467.80 10.16L467.80 10.16L467.80 10.16Q467.80 10.28 467.78 10.39L467.78 10.39L467.78 10.39Q467.75 10.51 467.73 10.60L467.73 10.60L467.73 10.60Q467.54 10.57 467.32 10.55L467.32 10.55L467.32 10.55Q467.10 10.53 466.79 10.53L466.79 10.53L466.79 10.53Q466.19 10.53 465.57 10.63L465.57 10.63L465.57 10.63Q464.95 10.74 464.39 10.81L464.39 10.81L464.39 10.81Q464.07 11.55 463.81 12.24L463.81 12.24L463.81 12.24Q463.54 12.94 463.35 13.51L463.35 13.51L463.35 13.51Q463.16 14.08 463.06 14.50L463.06 14.50L463.06 14.50Q462.95 14.92 462.94 15.13L462.94 15.13L462.94 15.13Q464.07 14.90 465.23 14.73L465.23 14.73L465.23 14.73Q466.38 14.56 467.66 14.48L467.66 14.48L467.66 14.48Q467.81 14.71 467.92 14.99L467.92 14.99L467.92 14.99Q468.02 15.27 468.02 15.60L468.02 15.60L468.02 15.60Q468.02 15.68 468.02 15.78L468.02 15.78L468.02 15.78Q468.02 15.88 467.99 15.97L467.99 15.97L467.99 15.97Q467.60 15.96 467.17 15.95L467.17 15.95L467.17 15.95Q466.73 15.95 466.03 15.95L466.03 15.95L466.03 15.95Q465.57 15.95 465.16 15.97L465.16 15.97L465.16 15.97Q464.74 15.99 464.32 16.03L464.32 16.03L464.32 16.03Q463.90 16.07 463.44 16.14L463.44 16.14L463.44 16.14Q462.97 16.21 462.38 16.31L462.38 16.31L462.38 16.31Q461.73 16.06 461.13 15.08L461.13 15.08L461.13 15.08Q461.37 14.57 461.80 13.54L461.80 13.54L461.80 13.54Q462.22 12.52 462.88 10.79L462.88 10.79L462.88 10.79Q462.25 10.60 462.06 10.09L462.06 10.09L462.06 10.09Q462.13 10.02 462.46 9.92L462.46 9.92L462.46 9.92Q462.80 9.81 463.29 9.70L463.29 9.70L463.29 9.70Q463.50 9.16 463.65 8.75L463.65 8.75L463.65 8.75Q463.79 8.34 463.90 7.99L463.90 7.99L463.90 7.99Q464.02 7.63 464.11 7.29L464.11 7.29L464.11 7.29Q464.20 6.94 464.28 6.54L464.28 6.54L464.28 6.54Q463.79 6.51 463.51 6.27L463.51 6.27L463.51 6.27Q463.23 6.02 463.23 5.63L463.23 5.63L463.23 5.63Q463.23 5.52 463.27 5.36L463.27 5.36L463.27 5.36Q463.30 5.21 463.34 5.10L463.34 5.10L463.34 5.10Q463.62 5.14 463.88 5.15L463.88 5.15L463.88 5.15Q464.14 5.17 464.56 5.17L464.56 5.17L464.56 5.17Q465.44 5.17 466.21 5.12L466.21 5.12L466.21 5.12Q466.98 5.07 467.61 5.01L467.61 5.01L467.61 5.01Q468.23 4.96 468.68 4.91L468.68 4.91L468.68 4.91Q469.13 4.86 469.36 4.86L469.36 4.86L469.36 4.86Q469.69 4.86 469.94 5.19L469.94 5.19L469.94 5.19Q470.19 5.53 470.32 6.15L470.32 6.15L470.32 6.15Q469.88 6.10 469.61 6.09L469.61 6.09L469.61 6.09Q469.34 6.08 469.13 6.08L469.13 6.08L469.13 6.08Q468.36 6.08 467.72 6.15L467.72 6.15L467.72 6.15Q467.08 6.23 466.49 6.31L466.49 6.31L466.49 6.31Q466.41 6.44 466.31 6.64L466.31 6.64L466.31 6.64Q466.20 6.83 466.03 7.18L466.03 7.18L466.03 7.18Q465.86 7.53 465.62 8.06L465.62 8.06L465.62 8.06Q465.37 8.60 465.02 9.39L465.02 9.39L465.02 9.39Q465.56 9.31 466.03 9.26L466.03 9.26L466.03 9.26Q466.49 9.21 466.82 9.21Z"></path></g></svg>