<svg data-v-fde0c5aa="" xmlns="http://www.w3.org/2000/svg" viewBox="0 0 300 300" class="font"><!----><defs data-v-fde0c5aa=""><!----></defs><rect data-v-fde0c5aa="" fill="transparent" x="0" y="0" width="300px" height="300px" class="logo-background-square"></rect><defs data-v-fde0c5aa=""><linearGradient data-v-fde0c5aa="" gradientTransform="rotate(25)" id="a590536d-4953-4f70-be28-f5c89a1b5f8d" x1="0%" y1="0%" x2="100%" y2="0%"><stop data-v-fde0c5aa="" offset="0%" stop-color="#177775" stop-opacity="1"></stop><stop data-v-fde0c5aa="" offset="100%" stop-color="#28D2BF" stop-opacity="1"></stop></linearGradient></defs><g data-v-fde0c5aa="" id="47e6a1fa-0d36-4d0e-843c-7827b2d01847" fill="url(#a590536d-4953-4f70-be28-f5c89a1b5f8d)" transform="matrix(3.2248606869452137,0,0,3.2248606869452137,39.32277922883117,121.04075020085595)"><path d="M4.18 2.42L4.18 2.42Q5.61 2.42 6.39 2.76L6.39 2.76L6.39 2.76Q7.18 3.10 7.86 3.79L7.86 3.79L6.49 5.15L6.49 5.15Q5.81 4.33 4.58 4.33L4.58 4.33L4.58 4.33Q3.35 4.33 3.01 4.92L3.01 4.92L3.01 4.92Q2.67 5.50 3.01 5.91L3.01 5.91L3.01 5.91Q3.35 6.32 4.58 6.52L4.58 6.52L4.58 6.52Q5.88 6.66 6.94 7.38L6.94 7.38L6.94 7.38Q8.00 8.09 8.00 9.67L8.00 9.67L8.00 9.67Q8.00 10.90 6.87 11.79L6.87 11.79L6.87 11.79Q5.74 12.67 4.23 12.67L4.23 12.67L4.23 12.67Q2.80 12.67 1.85 12.26L1.85 12.26L1.85 12.26Q0.89 11.85 0.21 11.17L0.21 11.17L1.57 9.80L1.57 9.80Q2.26 10.62 3.90 10.76L3.90 10.76L3.90 10.76Q5.26 10.76 5.60 10.18L5.60 10.18L5.60 10.18Q5.94 9.60 5.60 9.02L5.60 9.02L5.60 9.02Q5.26 8.44 3.90 8.30L3.90 8.30L3.90 8.30Q2.67 8.16 1.64 7.55L1.64 7.55L1.64 7.55Q0.62 6.93 0.62 5.43L0.62 5.43L0.62 5.43Q0.62 4.07 1.78 3.24L1.78 3.24L1.78 3.24Q2.95 2.42 4.18 2.42L4.18 2.42ZM11.56 15.55L9.65 15.54L9.65 6.04L11.56 5.83L11.56 6.38L11.56 6.38Q12.33 5.83 13.06 5.83L13.06 5.83L13.06 5.83Q14.64 5.83 15.56 6.86L15.56 6.86L15.56 6.86Q16.48 7.88 16.48 9.25L16.48 9.25L16.48 9.25Q16.48 10.62 15.56 11.64L15.56 11.64L15.56 11.64Q14.64 12.67 13.06 12.67L13.06 12.67L13.06 12.67Q12.04 12.60 11.56 12.11L11.56 12.11L11.56 15.55ZM11.56 8.63L11.56 8.63L11.56 9.74L11.56 9.74Q11.70 10.89 13.00 11.09L13.00 11.09L13.00 11.09Q14.64 10.96 14.84 9.39L14.84 9.39L14.84 9.39Q14.77 7.47 13.00 7.40L13.00 7.40L13.00 7.40Q11.70 7.61 11.56 8.63ZM18.73 7.82L17.98 6.66L17.98 6.66Q19.28 5.84 20.99 5.84L20.99 5.84L20.99 5.84Q22.22 5.84 22.93 6.52L22.93 6.52L22.93 6.52Q23.65 7.21 23.65 8.57L23.65 8.57L23.65 12.67L21.74 12.67L21.74 12.13L21.74 12.13Q20.90 12.67 20.23 12.67L20.23 12.67L20.23 12.67Q18.87 12.67 18.18 12.09L18.18 12.09L18.18 12.09Q17.50 11.51 17.50 10.49L17.50 10.49L17.50 10.49Q17.50 9.53 18.15 8.78L18.15 8.78L18.15 8.78Q18.79 8.03 20.23 8.03L20.23 8.03L20.23 8.03Q20.90 8.03 21.74 8.44L21.74 8.44L21.74 8.23L21.74 8.23Q21.72 7.48 20.64 7.41L20.64 7.41L20.64 7.41Q19.41 7.41 18.73 7.82L18.73 7.82ZM21.74 10.62L21.74 10.62L21.74 9.85L21.74 9.85Q21.46 9.32 20.44 9.32L20.44 9.32L20.44 9.32Q19.21 9.46 19.14 10.28L19.14 10.28L19.14 10.28Q19.21 11.09 20.44 11.16L20.44 11.16L20.44 11.16Q21.46 11.16 21.74 10.62ZM29.58 12.35L29.58 12.35Q29.09 12.67 28.45 12.67L28.45 12.67L28.45 12.67Q27.29 12.67 26.61 12.02L26.61 12.02L26.61 12.02Q25.92 11.38 25.92 10.35L25.92 10.35L25.92 7.39L24.90 7.39L24.90 5.84L25.92 5.84L25.92 3.99L27.84 3.79L27.84 5.84L28.87 5.84L28.87 7.39L27.84 7.39L27.84 10.08L27.84 10.08Q27.84 10.62 28.07 10.85L28.07 10.85L28.07 10.85Q28.30 11.07 28.66 11.07L28.66 11.07L28.66 11.07Q28.77 11.07 29.18 10.98L29.18 10.98L29.58 12.35ZM32.66 12.67L30.74 12.67L30.74 5.83L32.66 5.83L32.66 12.67ZM30.67 4.20L30.67 4.20L30.67 4.20Q30.67 4.61 30.95 4.88L30.95 4.88L30.95 4.88Q31.22 5.15 31.70 5.15L31.70 5.15L31.70 5.15Q32.18 5.15 32.45 4.88L32.45 4.88L32.45 4.88Q32.72 4.61 32.72 4.20L32.72 4.20L32.72 4.20Q32.72 3.79 32.45 3.51L32.45 3.51L32.45 3.51Q32.18 3.23 31.68 3.23L31.68 3.23L31.68 3.23Q31.22 3.23 30.95 3.51L30.95 3.51L30.95 3.51Q30.67 3.79 30.67 4.20ZM35.21 7.82L34.45 6.66L34.45 6.66Q35.75 5.84 37.46 5.84L37.46 5.84L37.46 5.84Q38.69 5.84 39.41 6.52L39.41 6.52L39.41 6.52Q40.13 7.21 40.13 8.57L40.13 8.57L40.13 12.67L38.21 12.67L38.21 12.13L38.21 12.13Q37.38 12.67 36.71 12.67L36.71 12.67L36.71 12.67Q35.34 12.67 34.66 12.09L34.66 12.09L34.66 12.09Q33.97 11.51 33.97 10.49L33.97 10.49L33.97 10.49Q33.97 9.53 34.62 8.78L34.62 8.78L34.62 8.78Q35.27 8.03 36.71 8.03L36.71 8.03L36.71 8.03Q37.37 8.03 38.21 8.44L38.21 8.44L38.21 8.23L38.21 8.23Q38.20 7.48 37.12 7.41L37.12 7.41L37.12 7.41Q35.89 7.41 35.21 7.82L35.21 7.82ZM38.21 10.62L38.21 10.62L38.21 9.85L38.21 9.85Q37.94 9.32 36.91 9.32L36.91 9.32L36.91 9.32Q35.68 9.46 35.62 10.28L35.62 10.28L35.62 10.28Q35.68 11.09 36.91 11.16L36.91 11.16L36.91 11.16Q37.94 11.16 38.21 10.62ZM51.34 12.67L51.34 12.67Q49.17 12.67 47.70 11.20L47.70 11.20L47.70 11.20Q46.22 9.73 46.22 7.53L46.22 7.53L46.22 7.53Q46.23 5.37 47.70 3.89L47.70 3.89L47.70 3.89Q49.17 2.42 51.34 2.42L51.34 2.42L51.34 2.42Q53.54 2.42 55.11 3.79L55.11 3.79L53.74 5.28L53.74 5.28Q52.70 4.46 51.34 4.46L51.34 4.46L51.34 4.46Q49.96 4.47 49.12 5.33L49.12 5.33L49.12 5.33Q48.28 6.18 48.28 7.51L48.28 7.51L48.28 7.51Q48.28 8.94 49.13 9.78L49.13 9.78L49.13 9.78Q49.98 10.62 51.36 10.62L51.36 10.62L51.36 10.62Q52.47 10.62 53.06 10.19L53.06 10.19L53.06 8.43L51.69 8.44L51.69 6.52L55.11 6.52L55.11 11.31L55.11 11.31Q53.55 12.67 51.34 12.67L51.34 12.67ZM57.18 12.67L57.18 2.41L59.22 2.41L59.22 12.67L57.18 12.67ZM64.61 2.42L64.61 2.42Q66.04 2.42 66.83 2.76L66.83 2.76L66.83 2.76Q67.61 3.10 68.30 3.79L68.30 3.79L66.93 5.15L66.93 5.15Q66.25 4.33 65.02 4.33L65.02 4.33L65.02 4.33Q63.79 4.33 63.44 4.92L63.44 4.92L63.44 4.92Q63.10 5.50 63.44 5.91L63.44 5.91L63.44 5.91Q63.79 6.32 65.02 6.52L65.02 6.52L65.02 6.52Q66.32 6.66 67.38 7.38L67.38 7.38L67.38 7.38Q68.43 8.09 68.43 9.67L68.43 9.67L68.43 9.67Q68.43 10.90 67.30 11.79L67.30 11.79L67.30 11.79Q66.17 12.67 64.67 12.67L64.67 12.67L64.67 12.67Q63.24 12.67 62.28 12.26L62.28 12.26L62.28 12.26Q61.33 11.85 60.64 11.17L60.64 11.17L62.01 9.80L62.01 9.80Q62.69 10.62 64.33 10.76L64.33 10.76L64.33 10.76Q65.70 10.76 66.04 10.18L66.04 10.18L66.04 10.18Q66.38 9.60 66.04 9.02L66.04 9.02L66.04 9.02Q65.70 8.44 64.33 8.30L64.33 8.30L64.33 8.30Q63.10 8.16 62.08 7.55L62.08 7.55L62.08 7.55Q61.05 6.93 61.05 5.43L61.05 5.43L61.05 5.43Q61.05 4.07 62.22 3.24L62.22 3.24L62.22 3.24Q63.38 2.42 64.61 2.42L64.61 2.42Z"></path></g><!----><!----></svg>